<?xml version="1.0" encoding="UTF-8" standalone="no"?>
<svg
   xmlns:dc="http://purl.org/dc/elements/1.1/"
   xmlns:cc="http://creativecommons.org/ns#"
   xmlns:rdf="http://www.w3.org/1999/02/22-rdf-syntax-ns#"
   xmlns:svg="http://www.w3.org/2000/svg"
   xmlns="http://www.w3.org/2000/svg"
   xmlns:sodipodi="http://sodipodi.sourceforge.net/DTD/sodipodi-0.dtd"
   xmlns:inkscape="http://www.inkscape.org/namespaces/inkscape"
   width="178.73366mm"
   height="32mm"
   viewBox="0 0 178.73366 32"
   version="1.1"
   id="svg8"
   inkscape:version="1.0.2 (e86c870879, 2021-01-15, custom)"
   sodipodi:docname="logo_original.svg">
  <defs
     id="defs2" />
  <sodipodi:namedview
     id="base"
     pagecolor="#ffffff"
     bordercolor="#666666"
     borderopacity="1.0"
     inkscape:pageopacity="0.0"
     inkscape:pageshadow="2"
     inkscape:zoom="0.98994949"
     inkscape:cx="304.63613"
     inkscape:cy="182.69043"
     inkscape:document-units="mm"
     inkscape:current-layer="layer1"
     showgrid="false"
     showguides="false"
     fit-margin-top="1"
     fit-margin-left="1"
     fit-margin-right="1"
     fit-margin-bottom="1"
     inkscape:window-width="1920"
     inkscape:window-height="1057"
     inkscape:window-x="1912"
     inkscape:window-y="-8"
     inkscape:window-maximized="1"
     inkscape:document-rotation="0">
    <inkscape:grid
       type="xygrid"
       id="grid3793"
       originx="11.31728"
       originy="-5.05579" />
  </sodipodi:namedview>
  <metadata
     id="metadata5">
    <rdf:RDF>
      <cc:Work
         rdf:about="">
        <dc:format>image/svg+xml</dc:format>
        <dc:type
           rdf:resource="http://purl.org/dc/dcmitype/StillImage" />
        <dc:title></dc:title>
      </cc:Work>
    </rdf:RDF>
  </metadata>
  <g
     inkscape:label="Layer 1"
     inkscape:groupmode="layer"
     id="layer1"
     transform="translate(-28.937184,-46.094518)">
    <g
       id="g905"
       transform="matrix(1.9999778,0,0,1.9999778,-84.018931,-91.450114)">
      <path
         id="path835-2-1"
         style="fill:#5599ff;stroke:none;stroke-width:0.599998;stroke-linecap:round;stroke-linejoin:round"
         d="m 64.424796,69.273137 a 7.5,7.5 0 0 0 -7.446058,7.4998 7.5,7.5 0 0 0 0,0.05374 v 7.446574 h 7.499802 a 7.5,7.5 0 0 0 7.500316,-7.500318 7.5,7.5 0 0 0 -7.500316,-7.4998 7.5,7.5 0 0 0 -0.05374,0 z" />
      <g
         id="g898">
        <path
           id="path835-3"
           style="fill:#ffffff;stroke:none;stroke-width:0.4;stroke-linecap:round;stroke-linejoin:round"
           d="m 64.728662,71.523177 v 5.00021 h 5.000213 a 5,5 0 0 0 0,-0.01964 5,5 0 0 0 -5.000213,-4.980575 z" />
        <path
           id="path835-1-4"
           style="fill:#ffffff;stroke:none;stroke-width:0.4;stroke-linecap:round;stroke-linejoin:round"
           d="m 59.228662,76.523395 h 5.000209 v -5.000213 a 5,5 0 0 0 -0.01963,0 5,5 0 0 0 -4.980574,5.000213 z" />
        <path
           id="path835-1-4-0"
           style="fill:#ffffff;stroke:none;stroke-width:0.4;stroke-linecap:round;stroke-linejoin:round"
           d="m 59.228657,82.023386 v -5.000209 h 5.000213 a 5,5 0 0 1 0,0.01963 5,5 0 0 1 -5.000213,4.980574 z" />
      </g>
    </g>
    <flowRoot
       xml:space="preserve"
       id="flowRoot12"
       style="font-style:normal;font-weight:normal;font-size:40px;line-height:1.25;font-family:sans-serif;letter-spacing:0px;word-spacing:0px;fill:#ffffff;fill-opacity:1;stroke:none"
       transform="matrix(0.26458333,0,0,0.26458333,20.600482,5.034612)"><flowRegion
         id="flowRegion14"
         style="fill:#ffffff"><rect
           id="rect16"
           width="969.16199"
           height="205.59055"
           x="170.71428"
           y="178.23396"
           style="fill:#ffffff" /></flowRegion><flowPara
         id="flowPara18"
         style="font-style:normal;font-variant:normal;font-weight:bold;font-stretch:normal;font-size:64px;font-family:'Helvetica Neue';-inkscape-font-specification:'Helvetica Neue Bold';fill:#000000">POLITE <flowSpan
   style="font-style:normal;font-variant:normal;font-weight:100;font-stretch:normal;font-family:'Helvetica Neue';-inkscape-font-specification:'Helvetica Neue Thin'"
   id="flowSpan861">INVESTOR</flowSpan></flowPara></flowRoot>
  </g>
</svg>
