<?xml version="1.0" encoding="UTF-8" standalone="no"?>
<svg
   width="179.59581mm"
   height="30mm"
   viewBox="0 0 179.59581 30"
   version="1.1"
   id="svg8"
   inkscape:version="1.2 (dc2aedaf03, 2022-05-15)"
   sodipodi:docname="logo.svg"
   xmlns:inkscape="http://www.inkscape.org/namespaces/inkscape"
   xmlns:sodipodi="http://sodipodi.sourceforge.net/DTD/sodipodi-0.dtd"
   xmlns="http://www.w3.org/2000/svg"
   xmlns:svg="http://www.w3.org/2000/svg"
   xmlns:rdf="http://www.w3.org/1999/02/22-rdf-syntax-ns#"
   xmlns:cc="http://creativecommons.org/ns#"
   xmlns:dc="http://purl.org/dc/elements/1.1/">
  <defs
     id="defs2" />
  <sodipodi:namedview
     id="base"
     pagecolor="#ffffff"
     bordercolor="#666666"
     borderopacity="1.0"
     inkscape:pageopacity="0.0"
     inkscape:pageshadow="2"
     inkscape:zoom="0.98994949"
     inkscape:cx="301.02546"
     inkscape:cy="178.797"
     inkscape:document-units="mm"
     inkscape:current-layer="layer1"
     showgrid="false"
     showguides="false"
     fit-margin-top="1"
     fit-margin-left="1"
     fit-margin-right="1"
     fit-margin-bottom="1"
     inkscape:window-width="1346"
     inkscape:window-height="1031"
     inkscape:window-x="2041"
     inkscape:window-y="89"
     inkscape:window-maximized="0"
     inkscape:document-rotation="0"
     inkscape:showpageshadow="2"
     inkscape:pagecheckerboard="0"
     inkscape:deskcolor="#d1d1d1">
    <inkscape:grid
       type="xygrid"
       id="grid3793"
       originx="10.317281"
       originy="-6.0557899" />
  </sodipodi:namedview>
  <metadata
     id="metadata5">
    <rdf:RDF>
      <cc:Work
         rdf:about="">
        <dc:format>image/svg+xml</dc:format>
        <dc:type
           rdf:resource="http://purl.org/dc/dcmitype/StillImage" />
      </cc:Work>
    </rdf:RDF>
  </metadata>
  <g
     inkscape:label="Layer 1"
     inkscape:groupmode="layer"
     id="layer1"
     transform="translate(-29.937184,-47.094518)">
    <g
       id="g905"
       transform="matrix(1.9999778,0,0,1.9999778,-84.018931,-91.450114)">
      <path
         id="path835-2-1"
         style="fill:#5599ff;stroke:none;stroke-width:0.599998;stroke-linecap:round;stroke-linejoin:round"
         d="m 64.424796,69.273137 a 7.5,7.5 0 0 0 -7.446058,7.4998 7.5,7.5 0 0 0 0,0.05374 v 7.446574 h 7.499802 a 7.5,7.5 0 0 0 7.500316,-7.500318 7.5,7.5 0 0 0 -7.500316,-7.4998 7.5,7.5 0 0 0 -0.05374,0 z" />
      <g
         id="g898">
        <path
           id="path835-3"
           style="fill:#ffffff;stroke:none;stroke-width:0.4;stroke-linecap:round;stroke-linejoin:round"
           d="m 64.728662,71.523177 v 5.00021 h 5.000213 a 5,5 0 0 0 0,-0.01964 5,5 0 0 0 -5.000213,-4.980575 z" />
        <path
           id="path835-1-4"
           style="fill:#ffffff;stroke:none;stroke-width:0.4;stroke-linecap:round;stroke-linejoin:round"
           d="m 59.228662,76.523395 h 5.000209 v -5.000213 a 5,5 0 0 0 -0.01963,0 5,5 0 0 0 -4.980574,5.000213 z" />
        <path
           id="path835-1-4-0"
           style="fill:#ffffff;stroke:none;stroke-width:0.4;stroke-linecap:round;stroke-linejoin:round"
           d="m 59.228657,82.023386 v -5.000209 h 5.000213 a 5,5 0 0 1 0,0.01963 5,5 0 0 1 -5.000213,4.980574 z" />
      </g>
    </g>
    <g
       aria-label="POLITE INVESTOR"
       transform="matrix(0.26458333,0,0,0.26458333,23.462483,5.5691512)"
       id="flowRoot12"
       style="font-size:40px;line-height:1.25;letter-spacing:0px;word-spacing:0px;fill:#000000">
      <path
         d="m 185.17884,214.34749 h 7.808 c 1.152,0.064 2.24,-0.064 3.328,-0.256 1.024,-0.128 1.984,-0.448 2.816,-0.96 0.768,-0.512 1.408,-1.216 1.92,-2.112 0.512,-0.832 0.704,-2.048 0.768,-3.52 0,-1.408 -0.256,-2.56 -0.768,-3.52 -0.512,-0.896 -1.152,-1.536 -1.92,-2.048 -0.832,-0.512 -1.792,-0.832 -2.816,-1.024 -1.088,-0.128 -2.176,-0.256 -3.328,-0.256 h -7.808 z m -10.048,-21.504 h 20.608 c 2.816,0 5.248,0.448 7.296,1.28 1.984,0.832 3.584,1.92 4.864,3.264 1.28,1.408 2.176,2.944 2.752,4.672 0.576,1.792 0.896,3.584 0.896,5.44 0,1.856 -0.32,3.648 -0.896,5.44 -0.576,1.792 -1.472,3.328 -2.752,4.672 -1.28,1.408 -2.88,2.496 -4.864,3.328 -2.048,0.832 -4.48,1.216 -7.296,1.216 h -10.56 v 16.384 h -10.048 z"
         style="font-weight:bold;font-size:64px;font-family:'Helvetica Neue';-inkscape-font-specification:'Helvetica Neue Bold';fill:#000000"
         id="path2902" />
      <path
         d="m 225.88283,215.88349 c 0,1.92 0.192,3.84 0.64,5.632 0.448,1.792 1.152,3.456 2.176,4.864 0.96,1.472 2.24,2.624 3.84,3.52 1.536,0.896 3.456,1.28 5.76,1.28 2.24,0 4.16,-0.384 5.76,-1.28 1.536,-0.896 2.816,-2.048 3.84,-3.52 0.96,-1.408 1.664,-3.072 2.112,-4.864 0.448,-1.792 0.704,-3.712 0.704,-5.632 0,-1.984 -0.256,-3.904 -0.704,-5.824 -0.448,-1.856 -1.152,-3.52 -2.112,-4.992 -1.024,-1.472 -2.304,-2.624 -3.84,-3.52 -1.6,-0.896 -3.52,-1.344 -5.76,-1.344 -2.304,0 -4.224,0.448 -5.76,1.344 -1.6,0.896 -2.88,2.048 -3.84,3.52 -1.024,1.472 -1.728,3.136 -2.176,4.992 -0.448,1.92 -0.64,3.84 -0.64,5.824 z m -10.048,0 c 0,-3.392 0.512,-6.528 1.536,-9.472 1.024,-2.944 2.496,-5.504 4.416,-7.68 1.92,-2.112 4.224,-3.84 7.04,-5.12 2.816,-1.216 5.952,-1.792 9.472,-1.856 3.52,0 6.656,0.64 9.472,1.856 2.752,1.28 5.056,2.944 7.04,5.12 1.92,2.176 3.392,4.736 4.416,7.68 1.024,2.944 1.536,6.08 1.536,9.472 0,3.328 -0.512,6.464 -1.536,9.344 -1.024,2.88 -2.496,5.376 -4.416,7.488 -1.92,2.176 -4.288,3.84 -7.04,5.056 -2.816,1.216 -5.952,1.792 -9.472,1.792 -3.52,0 -6.656,-0.576 -9.472,-1.792 -2.816,-1.216 -5.12,-2.88 -7.04,-5.056 -1.92,-2.112 -3.392,-4.608 -4.416,-7.488 -1.024,-2.88 -1.536,-6.016 -1.536,-9.344 z"
         style="font-weight:bold;font-size:64px;font-family:'Helvetica Neue';-inkscape-font-specification:'Helvetica Neue Bold';fill:#000000"
         id="path2904" />
      <path
         d="m 267.61082,192.84349 h 10.048 v 37.248 h 22.272 v 8.448 h -32.32 z"
         style="font-weight:bold;font-size:64px;font-family:'Helvetica Neue';-inkscape-font-specification:'Helvetica Neue Bold';fill:#000000"
         id="path2906" />
      <path
         d="m 305.56285,192.84349 h 10.048 v 45.696 h -10.048 z"
         style="font-weight:bold;font-size:64px;font-family:'Helvetica Neue';-inkscape-font-specification:'Helvetica Neue Bold';fill:#000000"
         id="path2908" />
      <path
         d="m 334.55486,201.29149 h -13.696 v -8.448 h 37.44 v 8.448 h -13.696 v 37.248 h -10.048 z"
         style="font-weight:bold;font-size:64px;font-family:'Helvetica Neue';-inkscape-font-specification:'Helvetica Neue Bold';fill:#000000"
         id="path2910" />
      <path
         d="m 363.54686,192.84349 h 34.176 v 8.448 h -24.128 v 9.792 h 22.144 v 7.808 h -22.144 v 11.2 h 24.64 v 8.448 h -34.688 z"
         style="font-weight:bold;font-size:64px;font-family:'Helvetica Neue';-inkscape-font-specification:'Helvetica Neue Bold';fill:#000000"
         id="path2912" />
      <path
         d="m 422.4269,238.53949 h 2.816 v -45.696 h -2.816 z"
         style="font-weight:100;font-family:'Helvetica Neue';-inkscape-font-specification:'Helvetica Neue Thin';fill:#000000"
         id="path2914" />
      <path
         d="m 433.3069,238.53949 h 2.816 v -42.24 h 0.128 l 29.056,42.24 h 3.328 v -45.696 h -2.816 v 41.92 h -0.128 l -28.864,-41.92 h -3.52 z"
         style="font-weight:100;font-family:'Helvetica Neue';-inkscape-font-specification:'Helvetica Neue Thin';fill:#000000"
         id="path2916" />
      <path
         d="m 474.71487,192.84349 h -2.944 l 17.024,45.696 h 3.264 l 17.088,-45.696 h -2.816 l -15.808,43.264 h -0.128 z"
         style="font-weight:100;font-family:'Helvetica Neue';-inkscape-font-specification:'Helvetica Neue Thin';fill:#000000"
         id="path2918" />
      <path
         d="m 515.09885,236.10749 v -20.096 h 26.24 v -2.432 h -26.24 v -18.304 h 27.904 v -2.432 h -30.72 v 45.696 h 31.04 v -2.432 z"
         style="font-weight:100;font-family:'Helvetica Neue';-inkscape-font-specification:'Helvetica Neue Thin';fill:#000000"
         id="path2920" />
      <path
         d="m 580.76282,205.89949 c -0.448,-10.048 -7.936,-14.144 -17.472,-14.144 -7.232,0 -15.36,3.392 -15.36,12.16 0,8.704 7.808,10.56 15.552,12.16 7.808,1.6 15.616,2.944 15.616,10.688 0,7.936 -7.744,10.432 -13.248,10.432 -9.024,0 -17.024,-3.776 -16.448,-13.76 h -2.816 c -0.128,11.776 8.576,16.192 19.264,16.192 6.976,0 16.064,-3.392 16.064,-12.864 0,-9.088 -7.808,-11.072 -15.616,-12.672 -7.744,-1.6 -15.552,-2.816 -15.552,-10.176 0,-7.552 7.36,-9.728 12.544,-9.728 8.448,0 14.336,3.904 14.656,11.712 z"
         style="font-weight:100;font-family:'Helvetica Neue';-inkscape-font-specification:'Helvetica Neue Thin';fill:#000000"
         id="path2922" />
      <path
         d="m 599.57877,195.27549 v 43.264 h 2.816 v -43.264 h 16.128 v -2.432 h -35.008 v 2.432 z"
         style="font-weight:100;font-family:'Helvetica Neue';-inkscape-font-specification:'Helvetica Neue Thin';fill:#000000"
         id="path2924" />
      <path
         d="m 663.06671,215.69149 c 0,-13.376 -8.064,-23.936 -21.696,-23.936 -13.696,0 -21.76,10.56 -21.76,23.936 0,13.376 8.064,23.936 21.76,23.936 13.632,0 21.696,-10.56 21.696,-23.936 z m -40.64,0 c 0,-11.712 6.976,-21.504 18.944,-21.504 11.904,0 18.88,9.792 18.88,21.504 0,11.712 -6.976,21.504 -18.88,21.504 -11.968,0 -18.944,-9.792 -18.944,-21.504 z"
         style="font-weight:100;font-family:'Helvetica Neue';-inkscape-font-specification:'Helvetica Neue Thin';fill:#000000"
         id="path2926" />
      <path
         d="m 671.89866,215.30749 v -20.032 h 16.256 c 6.144,0 11.648,2.624 11.648,9.536 0,7.36 -4.992,10.496 -11.648,10.496 z m -2.816,23.232 h 2.816 v -20.8 h 16.256 c 8,0 10.176,3.584 10.752,8 0.512,4.416 -0.512,9.664 1.216,12.8 h 3.136 c -1.856,-2.432 -1.088,-7.552 -1.536,-12.288 -0.448,-4.736 -2.112,-9.024 -8.896,-9.792 v -0.128 c 6.08,-1.024 9.792,-5.568 9.792,-11.712 0,-8.832 -6.464,-11.776 -14.464,-11.776 h -19.072 z"
         style="font-weight:100;font-family:'Helvetica Neue';-inkscape-font-specification:'Helvetica Neue Thin';fill:#000000"
         id="path2928" />
    </g>
  </g>
</svg>
