<?xml version="1.0" standalone="no"?>
<!DOCTYPE svg PUBLIC "-//W3C//DTD SVG 20010904//EN"
 "http://www.w3.org/TR/2001/REC-SVG-20010904/DTD/svg10.dtd">
<svg version="1.0" xmlns="http://www.w3.org/2000/svg"
 width="700.000000pt" height="700.000000pt" viewBox="0 0 700.000000 700.000000"
 preserveAspectRatio="xMidYMid meet">
<metadata>
Created by potrace 1.14, written by Peter Selinger 2001-2017
</metadata>
<g transform="translate(0.000000,700.000000) scale(0.100000,-0.100000)"
fill="#000000" stroke="none">
<path d="M3280 6994 c-19 -2 -84 -9 -145 -14 -410 -40 -846 -169 -1225 -362
-343 -176 -628 -387 -908 -672 -561 -572 -883 -1252 -984 -2081 -16 -133 -16
-590 0 -730 74 -625 284 -1178 634 -1669 211 -295 519 -603 813 -813 491 -351
1038 -559 1670 -635 135 -16 590 -16 735 1 705 80 1348 354 1880 802 134 113
345 325 452 455 433 526 696 1153 780 1859 16 139 16 595 0 730 -103 852 -447
1557 -1043 2141 -555 542 -1249 874 -2029 970 -117 15 -553 27 -630 18z m-300
-3492 l576 -1407 -210 -3 c-150 -2 -212 1 -217 9 -4 7 -78 198 -165 425 l-159
414 -594 -3 -593 -2 -152 -420 -153 -420 -196 -3 c-109 -1 -197 1 -197 5 0 5
242 639 537 1410 l538 1402 205 1 205 0 575 -1408z m1262 831 l3 -578 733 -3
732 -2 0 580 0 580 190 0 190 0 0 -1410 0 -1410 -190 0 -190 0 0 665 0 665
-735 0 -735 0 0 -665 0 -665 -185 0 -185 0 0 1410 0 1410 185 0 185 0 2 -577z"/>
<path d="M2186 4585 c-5 -16 -19 -75 -33 -130 -41 -170 -87 -305 -257 -760
l-164 -440 471 -3 c258 -1 472 0 475 3 2 2 -81 233 -186 512 -165 440 -278
758 -294 828 -4 16 -6 15 -12 -10z"/>
</g>
</svg>
