<?xml version="1.0" encoding="UTF-8" standalone="no"?>
<svg
   xmlns:dc="http://purl.org/dc/elements/1.1/"
   xmlns:cc="http://creativecommons.org/ns#"
   xmlns:rdf="http://www.w3.org/1999/02/22-rdf-syntax-ns#"
   xmlns:svg="http://www.w3.org/2000/svg"
   xmlns="http://www.w3.org/2000/svg"
   id="svg12"
   viewBox="0 0 14222 14222"
   style="shape-rendering:geometricPrecision; text-rendering:geometricPrecision; image-rendering:optimizeQuality; fill-rule:evenodd; clip-rule:evenodd"
   version="1.1"
   height="14.2222in"
   width="14.2222in"
   xml:space="preserve"><metadata
   id="metadata16"><rdf:RDF><cc:Work
       rdf:about=""><dc:format>image/svg+xml</dc:format><dc:type
         rdf:resource="http://purl.org/dc/dcmitype/StillImage" /><dc:title></dc:title></cc:Work></rdf:RDF></metadata>
 <defs
   id="defs4">
  <style
   id="style2"
   type="text/css">
   <![CDATA[
    .fil0 {fill:#1977F3;fill-rule:nonzero}
    .fil1 {fill:#FEFEFE;fill-rule:nonzero}
   ]]>
  </style>
 </defs>
 <g
   id="Layer_x0020_1">
  <metadata
   id="CorelCorpID_0Corel-Layer" />
  <path
   id="path7"
   transform="scale(10.416519)"
   d="M 682.66602 0 C 305.66869 0 0 305.66869 0 682.66602 C 0 1023.3748 249.6032 1305.8095 576.00781 1357.0742 L 576.00781 880.04492 L 402.62891 880.04492 L 402.62891 682.66602 L 576.00781 682.66602 L 576.00781 532.23242 C 576.00781 529.5592 576.03248 526.90332 576.08203 524.26758 C 576.08206 524.26627 576.08201 524.26498 576.08203 524.26367 C 576.13158 521.62928 576.206 519.01478 576.30469 516.41797 C 576.30479 516.41535 576.30459 516.41277 576.30469 516.41016 C 576.40337 513.81472 576.52838 511.23744 576.67578 508.67969 C 576.67601 508.67577 576.67556 508.67189 576.67578 508.66797 C 585.09456 362.65864 672.59879 278.15408 805.2793 267.69922 C 807.60703 267.5158 809.94933 267.35456 812.30469 267.2168 C 817.0154 266.94126 821.78059 266.75618 826.59961 266.66406 C 829.00912 266.618 831.43115 266.5957 833.86719 266.5957 C 908.55624 266.5957 986.70117 279.93945 986.70117 279.93945 L 986.70117 447.94141 L 900.58789 447.94141 C 897.64219 447.94141 894.77491 448.01187 891.96875 448.13672 C 890.35569 448.20848 888.76882 448.30412 887.20117 448.41602 C 885.46483 448.54 883.7497 448.68133 882.06836 448.85352 C 881.97096 448.86349 881.87065 448.87073 881.77344 448.88086 C 881.767 448.88153 881.76035 448.88214 881.75391 448.88281 C 880.57535 449.00582 879.40955 449.14082 878.25781 449.28711 C 878.25075 449.28801 878.24339 449.28817 878.23633 449.28906 C 875.92754 449.58264 873.67313 449.92377 871.4707 450.30859 C 869.26141 450.69461 867.10421 451.12489 865 451.59961 C 861.84368 452.31169 858.80423 453.12253 855.87891 454.02539 C 830.52608 461.85021 813.72498 476.64232 803.3457 494.9707 C 802.5473 496.38058 801.78783 497.81155 801.06445 499.26172 C 800.70276 499.9868 800.34916 500.7166 800.00586 501.45117 C 799.36501 502.82243 798.75961 504.21091 798.18164 505.61328 C 798.13772 505.71986 798.09044 505.82489 798.04688 505.93164 C 798.04367 505.93948 798.04031 505.94723 798.03711 505.95508 C 797.73605 506.69329 797.44422 507.43543 797.16016 508.18164 C 796.29143 510.4637 795.50121 512.78294 794.78711 515.13281 C 794.32568 516.65123 793.89717 518.18345 793.49805 519.72656 C 793.48472 519.7781 793.47029 519.82929 793.45703 519.88086 C 793.45451 519.89067 793.45174 519.90035 793.44922 519.91016 C 793.24777 520.69429 793.05489 521.48157 792.86914 522.27148 C 792.3607 524.43374 791.92327 526.61992 791.5293 528.82031 C 791.48387 529.07405 791.42676 529.32394 791.38281 529.57812 C 791.22318 530.50165 791.0953 531.43424 790.95508 532.36328 C 790.84679 533.08063 790.7219 533.79329 790.625 534.51367 C 790.62439 534.51824 790.62366 534.52277 790.62305 534.52734 C 790.26775 537.17068 790.00983 539.83763 789.80273 542.51367 C 789.75118 543.17994 789.6833 543.84397 789.64062 544.51172 C 789.53381 546.18307 789.45488 547.86027 789.40234 549.53906 C 789.34964 551.22367 789.32227 552.91098 789.32227 554.59961 L 789.32227 682.66602 L 978.63867 682.66602 L 948.39648 880.04492 L 789.32227 880.04492 L 789.32227 1357.0742 C 1115.7269 1305.9055 1365.332 1023.4708 1365.332 682.66602 C 1365.332 305.66869 1059.6633 0 682.66602 0 z "
   style="fill:#1977f3;fill-rule:nonzero;stroke-width:0.09600136" />
  
 </g>
</svg>