<?xml version="1.0" encoding="UTF-8" standalone="no"?>
<svg
   xmlns:dc="http://purl.org/dc/elements/1.1/"
   xmlns:cc="http://creativecommons.org/ns#"
   xmlns:rdf="http://www.w3.org/1999/02/22-rdf-syntax-ns#"
   xmlns:svg="http://www.w3.org/2000/svg"
   xmlns="http://www.w3.org/2000/svg"
   height="512"
   width="362.79999"
   id="svg14"
   version="1.1"
   viewBox="0 0 362.79999 512">
  <metadata
     id="metadata20">
    <rdf:RDF>
      <cc:Work
         rdf:about="">
        <dc:format>image/svg+xml</dc:format>
        <dc:type
           rdf:resource="http://purl.org/dc/dcmitype/StillImage" />
        <dc:title>HTML5 Logo</dc:title>
      </cc:Work>
    </rdf:RDF>
  </metadata>
  <defs
     id="defs18" />
  <title
     id="title2">HTML5 Logo</title>
  <path
     id="path4"
     d="m 33.8,0 h 23 V 22.8 H 78 V 0 h 23 V 69 H 78 V 46 H 57 V 69 H 33.8 M 131.4,23 H 111.1 V 0 h 63.7 v 23 h -20.4 v 46 h -23 M 184.9,0 H 209 L 223.8,24.3 238.6,0 h 24.1 v 69 h -23 V 34.8 L 223.6,59.6 207.5,34.8 V 69 H 184.9 M 274.1,0 h 23 v 46.2 h 32.6 V 69 h -55.6" />
  <path
     style="fill:#e44d26"
     id="path6"
     d="M 33,471 0,100.6 h 362.8 l -33,370.2 -148.7,41.2" />
  <path
     style="fill:#f16529"
     id="path8"
     d="M 181.4,480.5 V 131 h 148.3 l -28.3,316" />
  <path
     style="fill:#ebebeb"
     id="path10"
     d="m 67.4,176.3 h 114 v 45.4 h -64.2 l 4.2,46.5 h 60 v 45.3 H 79.8 m 2,22.8 h 45.6 l 3.2,36.3 50.8,13.6 v 47.4 l -93.2,-26" />
  <path
     style="fill:#ffffff"
     id="path12"
     d="M 295,176.3 H 181.2 v 45.4 h 109.6 m -4.1,46.5 H 181.2 v 45.4 h 56 l -5.3,59 -50.7,13.6 v 47.2 l 93,-25.8" />
</svg>
