<svg width="606mm" height="101mm" version="1.1" viewBox="0 0 606 101" xmlns="http://www.w3.org/2000/svg">
 <defs>
  <clipPath id="clipPath20">
   <path d="m0 2267h6120v-2267h-6120z"/>
  </clipPath>
 </defs>
 <g transform="matrix(1.3333 0 0 -1.3333 -.00094906 302.22)" fill="#fff">
  <g transform="scale(.1)" fill="#fff">
   <g clip-path="url(#clipPath20)" fill="#fff">
    <path d="m4148.7 1721.8-5.4 3c-11.86 6.6-13.95 11.09-13.95 16.79 0 8.71 8.55 13.66 17.99 13.66 8.56 0 12.76-3.61 14.71-6.01 2.85-3.29 3.45-7.2 3.45-8.4 0-1.49 0.45-2.24 1.35-2.24 1.05 0 1.65 1.34 1.65 4.05 0 10.05 0.44 13.64 0.44 15.29 0 0.9-0.59 1.36-1.79 1.65-3.45 0.9-10.21 2.1-18.75 2.1-18.3 0-33.3-10.05-33.3-25.64 0-11.25 5.09-19.81 20.7-28.95l7.65-4.5c11.7-6.9 13.04-12.45 13.04-18 0-9-6.89-16.2-18.29-16.2-8.25 0-18.15 3.15-21 12.6-0.76 2.24-1.2 4.95-1.2 6.6 0 0.9-0.15 2.1-1.35 2.1-1.05 0-1.65-1.35-1.65-3.3-0.15-2.1-0.75-10.05-0.75-16.95 0-2.86 0.44-3.45 2.55-4.35 5.7-2.55 13.8-3.3 21.45-3.3 7.05 0 15.75 0.75 22.05 5.25 9.6 6.75 13.19 14.4 13.19 23.85 0 11.54-5.4 21.3-22.79 30.9zm-63.91-34.2c-1.05 0-1.34-0.61-1.65-2.55-0.45-2.4-2.24-6-4.5-8.55-5.24-5.85-11.7-6.75-23.4-6.75-17.69 0-41.09 14.4-41.09 44.7 0 12.45 2.39 24.74 12.15 33.15 5.99 5.1 13.35 7.2 24.89 7.2 12.16 0 21.01-3.16 25.51-7.5 3.29-3.3 4.94-7.81 5.1-11.86 0-1.65 0.29-2.69 1.34-2.69 1.21 0 1.65 1.34 1.8 3.14 0.16 2.56 0.16 9.61 0.45 13.81 0.3 4.49 0.61 6 0.61 7.04 0 0.75-0.45 1.36-1.96 1.5-3.89 0.45-8.25 1.35-13.19 2.1-6.01 0.76-10.96 1.35-19.2 1.35-19.66 0-32.26-5.1-41.86-13.49-12.59-11.25-15.44-26.25-15.44-34.96 0-12.29 3.45-26.69 16.5-37.64 12-10.05 27.29-13.8 45.29-13.8 8.56 0 18.61 0.75 23.85 2.85 2.26 0.9 2.85 1.49 3.46 3.75 1.34 4.35 2.85 15.45 2.85 16.94 0 1.06-0.61 2.26-1.51 2.26zm-112.8-21.46c-1.95 0-4.95 0.16-6.75 0.45-3.9 0.61-4.8 2.56-5.25 6.01-0.6 5.4-0.6 15.6-0.6 27.9v22.5c0 19.35 0 22.95 0.3 26.99 0.3 4.5 1.35 6.3 4.95 6.91 1.5 0.3 2.55 0.45 3.9 0.45s2.1 0.3 2.1 1.49c0 0.75-1.05 1.05-2.7 1.05-5.1 0-13.65-0.3-16.95-0.3-3.75 0-12.75 0.3-17.7 0.3-2.1 0-3.15-0.3-3.15-1.05 0-1.19 0.75-1.49 2.1-1.49 1.65 0 3.3-0.15 4.8-0.61 2.85-0.9 4.2-2.39 4.5-6.75 0.15-4.04 0.15-7.64 0.15-26.99v-22.5c0-12.3 0-22.5-0.6-27.75-0.45-3.75-1.2-5.55-3.9-6.16-1.2-0.29-2.7-0.45-4.65-0.45-1.65 0-2.1-0.74-2.1-1.34 0-0.9 0.9-1.35 2.55-1.35 5.25 0 14.25 0.45 17.25 0.45 3.6 0 12.6-0.45 21.3-0.45 1.5 0 2.55 0.45 2.55 1.35 0 0.6-0.6 1.34-2.1 1.34zm-63.15 94.65c-0.45 0-1.5-0.3-3.6-0.59-1.95-0.31-4.8-0.61-9-0.61h-53.55c-4.35 0-9.3 0.16-13.2 0.61-3.3 0.45-4.65 1.49-5.7 1.49-0.75 0-1.2-0.74-1.5-2.39-0.3-1.06-2.85-13.35-2.85-15.45 0-1.36 0.3-2.1 1.2-2.1s1.2 0.6 1.5 1.64c0.3 0.91 0.9 2.56 2.25 4.36 1.95 2.85 5.1 3.75 12.75 3.89l19.65 0.45v-51.59c0-11.7 0-21.75-0.6-27.15-0.45-3.75-1.2-6.15-3.9-6.76-1.05-0.29-2.7-0.45-4.65-0.45-1.65 0-2.1-0.74-2.1-1.34 0-0.9 0.9-1.35 2.55-1.35 5.25 0 14.25 0.45 17.25 0.45 3.75 0 12.6-0.45 21.3-0.45 1.5 0 2.55 0.45 2.55 1.35 0 0.6-0.6 1.34-2.1 1.34-1.95 0-4.95 0.16-6.75 0.45-3.9 0.61-4.65 3.01-5.1 6.61-0.6 5.55-0.75 15.6-0.75 27.3v51.59l16.65-0.29c11.85-0.16 15.3-4.05 15.6-7.35l0.15-1.35c0.15-1.96 0.45-2.55 1.5-2.55 0.75 0 1.05 0.74 1.2 2.1 0 3.3 0.3 12.74 0.3 15.45 0 1.94-0.15 2.69-1.05 2.69zm-108.3-77.24c-0.9 0-1.2-0.6-1.5-1.96-0.9-5.24-2.4-7.95-5.7-9.44-3.45-1.5-9-1.65-12.45-1.65-13.5 0-17.55 1.94-17.85 10.64-0.14 3.75 0 14.56 0 18.91v10.2c0 0.75 0.15 1.34 0.75 1.34 3.3 0 18.3-0.29 20.7-0.59 4.95-0.45 6.6-2.4 7.35-4.95 0.3-1.65 0.3-3.3 0.45-4.65 0-0.61 0.3-1.06 1.2-1.06 1.2 0 1.35 1.81 1.35 2.86 0 0.89 0.3 6 0.6 8.55 0.75 6.45 1.05 8.55 1.05 9.3s-0.45 1.34-1.05 1.34-1.05-0.75-2.1-1.65c-1.35-1.2-3.15-1.65-6.3-1.94-3-0.3-20.1-0.3-23.1-0.3-0.75 0-0.9 0.59-0.9 1.35v31.5c0 0.74 0.3 1.19 0.9 1.19 2.71 0 18.45-0.29 20.7-0.59 6.6-0.6 7.65-2.41 8.7-4.65 0.75-1.51 0.9-3.75 0.9-4.65 0-1.06 0.15-1.65 1.05-1.65 1.05 0 1.35 1.49 1.5 2.1 0.3 1.49 0.6 7.05 0.75 8.4 0.3 5.85 1.05 7.34 1.05 8.25 0 0.59-0.15 1.2-0.9 1.2-0.6 0-1.35-0.46-2.1-0.61-1.05-0.14-3.15-0.59-5.55-0.75-2.55-0.14-31.8 0-36 0-3.75 0-12.15 0.3-19.05 0.3-1.94 0-2.99-0.3-2.99-1.2 0-0.89 0.9-1.34 2.24-1.34 1.96 0 4.2-0.15 5.25-0.45 4.21-1.2 5.4-2.55 5.7-6.91 0.15-4.04 0.15-7.64 0.15-26.99v-22.5c0-11.7 0-21.75-0.59-27.15-0.46-3.75-1.21-6.15-3.91-6.76-1.2-0.29-2.7-0.45-4.64-0.45-1.65 0-2.1-0.74-2.1-1.34 0-0.9 0.89-1.35 2.55-1.35 2.7 0 6 0.15 9.15 0.3 3.14 0 5.99 0.15 7.5 0.15 3.89 0 8.84-0.15 15.29-0.3 6.45-0.3 14.4-0.45 24.3-0.45 4.95 0 6.15 0 7.05 3.3 0.75 2.55 1.8 11.25 1.8 14.1 0 1.35-0.15 3-1.2 3zm-95.1 76.34c-6.45 0-11.4-0.3-12.9-0.3-2.85 0-9.9 0.3-16.8 0.3-1.95 0-3.29-0.14-3.29-1.2 0-0.75 0.45-1.34 2.1-1.34 1.79 0 4.94 0 6.89-0.76 3.15-1.2 4.36-3.44 4.5-11.25l1.35-56.7h-0.6c-1.94 1.81-19.5 19.81-28.5 28.66-19.2 18.75-39 38.99-40.64 40.64-2.25 2.26-4.05 4.2-5.7 4.2-1.35 0-2.26-1.8-2.26-4.34l-1.19-75.6c-0.15-11.1-0.6-14.55-4.05-15.45-1.8-0.45-4.2-0.61-6-0.61-1.2 0-2.11-0.59-2.11-1.34 0-1.2 1.21-1.35 3.01-1.35 6.75 0 13.04 0.45 14.25 0.45 2.4 0 8.55-0.45 17.1-0.45 1.8 0 2.99 0.3 2.99 1.35 0 0.75-0.74 1.34-2.24 1.34-2.1 0-4.66 0.16-6.9 0.91-2.56 0.9-4.21 3.9-4.5 13.8l-1.5 52.04h0.45c2.54-2.24 16.5-17.69 30.89-31.49 13.8-13.35 30.3-29.1 38.55-36.75 1.35-1.35 3.15-2.7 5.4-2.7 1.05 0 2.1 1.2 2.1 4.05l1.5 80.4c0.15 7.2 1.2 9.44 4.8 10.5 1.65 0.45 2.7 0.45 4.05 0.45 1.5 0 2.25 0.59 2.25 1.34 0 1.06-1.2 1.2-3 1.2zm-129.44-76.34c-0.9 0-1.21-0.6-1.5-1.96-0.91-5.24-2.41-7.95-5.7-9.44-3.45-1.5-9.01-1.65-12.45-1.65-13.5 0-17.55 1.94-17.85 10.64-0.15 3.75 0 14.56 0 18.91v10.2c0 0.75 0.15 1.34 0.75 1.34 3.3 0 18.3-0.29 20.7-0.59 4.95-0.45 6.6-2.4 7.34-4.95 0.31-1.65 0.31-3.3 0.45-4.65 0-0.61 0.31-1.06 1.2-1.06 1.21 0 1.36 1.81 1.36 2.86 0 0.89 0.3 6 0.6 8.55 0.75 6.45 1.05 8.55 1.05 9.3s-0.46 1.34-1.05 1.34c-0.6 0-1.05-0.75-2.1-1.65-1.35-1.2-3.16-1.65-6.31-1.94-2.99-0.3-20.09-0.3-23.09-0.3-0.75 0-0.9 0.59-0.9 1.35v31.5c0 0.74 0.3 1.19 0.9 1.19 2.7 0 18.45-0.29 20.7-0.59 6.59-0.6 7.64-2.41 8.7-4.65 0.75-1.51 0.9-3.75 0.9-4.65 0-1.06 0.15-1.65 1.05-1.65 1.05 0 1.34 1.49 1.5 2.1 0.29 1.49 0.6 7.05 0.75 8.4 0.3 5.85 1.05 7.34 1.05 8.25 0 0.59-0.15 1.2-0.91 1.2-0.6 0-1.34-0.46-2.1-0.61-1.05-0.14-3.14-0.59-5.54-0.75-2.56-0.14-31.8 0-36 0-3.75 0-12.15 0.3-19.05 0.3-1.95 0-3-0.3-3-1.2 0-0.89 0.9-1.34 2.25-1.34 1.95 0 4.2-0.15 5.25-0.45 4.2-1.2 5.4-2.55 5.7-6.91 0.15-4.04 0.15-7.64 0.15-26.99v-22.5c0-11.7 0-21.75-0.6-27.15-0.45-3.75-1.2-6.15-3.9-6.76-1.2-0.29-2.7-0.45-4.65-0.45-1.65 0-2.1-0.74-2.1-1.34 0-0.9 0.9-1.35 2.55-1.35 2.7 0 6 0.15 9.15 0.3 3.15 0 6 0.15 7.5 0.15 3.9 0 8.85-0.15 15.3-0.3 6.45-0.3 14.4-0.45 24.29-0.45 4.96 0 6.16 0 7.06 3.3 0.75 2.55 1.8 11.25 1.8 14.1 0 1.35-0.15 3-1.2 3zm-89.71 36.15c-4.95 0-12.9-0.45-17.55-0.45-4.5 0-13.95 0.45-21.75 0.45-2.1 0-3.15-0.3-3.15-1.5 0-0.9 0.9-1.21 2.25-1.21 2.1 0 4.65-0.14 5.85-0.44 4.95-1.05 6.3-3.45 6.45-8.55 0.15-4.5 0.15-10.2 0.15-17.7v-14.11c0-2.55-0.6-4.49-2.85-5.54-3.6-1.65-8.84-1.65-12.75-1.65-31.65 0-52.19 24.15-52.19 56.39 0 18.46 5.4 29.7 13.8 36.75 10.49 8.7 21.45 9.31 29.69 9.31 16.95 0 28.95-6.91 33.45-11.7 3.9-4.2 4.65-9.01 5.1-12.45 0.15-1.2 0.45-1.96 1.5-1.96 1.2 0 1.65 0.76 1.65 3.16 0 18.75 1.05 22.95 1.05 24.6 0 1.04-0.3 1.65-2.1 1.79-3.45 0.15-8.7 1.05-11.85 1.66-3 0.59-16.19 2.4-26.55 2.4-12.59 0-25.94-1.06-40.34-9.76-13.66-8.24-26.1-25.05-26.1-49.04 0-41.4 32.55-58.8 69.3-58.8 11.69 0 26.39 1.65 36.14 6.75 1.8 1.05 1.95 1.35 1.95 5.4v16.5c0 7.49 0 13.5 0.15 18 0.15 5.24 1.65 7.79 5.7 8.55 1.8 0.3 2.85 0.44 4.05 0.44 1.05 0 1.95 0.31 1.95 1.21 0 1.2-1.05 1.5-3 1.5zm-228.45-7.95c-2.24-1.65-4.05-2.1-9.3-2.1-3.3 0-7.2 0.29-10.04 1.19-0.91 0.46-1.21 0.91-1.21 2.26v37.95c0 1.04 0.3 1.49 1.21 1.79 1.34 0.31 4.49 0.45 7.79 0.45 7.8 0 20.1-4.65 20.1-22.64 0-10.5-4.5-16.06-8.55-18.9zm53.1-45.61c-1.05 0-1.8 0-3.15 0.31-2.1 0.45-6.75 1.05-14.1 8.4-7.95 7.95-17.25 19.5-28.94 33.89 12.89 10.35 18.29 18.75 18.29 28.21 0 8.55-5.55 15-9.3 17.54-7.05 4.65-16.65 5.4-25.04 5.4-4.06 0-16.05-0.3-20.56-0.3-2.7 0-11.09 0.3-17.99 0.3-1.95 0-3-0.3-3-1.2 0-0.89 0.9-1.34 2.24-1.34 1.96 0 4.2-0.15 5.25-0.45 4.21-1.2 5.4-2.55 5.71-6.91 0.15-4.04 0.15-7.64 0.15-26.99v-22.5c0-11.7 0-21.75-0.6-27.15-0.46-3.75-1.2-6.15-3.9-6.76-1.21-0.29-2.7-0.45-4.65-0.45-1.65 0-2.1-0.74-2.1-1.34 0-0.9 0.9-1.35 2.55-1.35 5.25 0 13.64 0.45 16.19 0.45 1.96 0 12.9-0.45 20.55-0.45 1.65 0 2.7 0.45 2.7 1.35 0 0.6-0.6 1.34-1.65 1.34-1.65 0-4.5 0.16-6.45 0.45-4.04 0.61-4.64 3.01-5.09 6.76-0.6 5.4-0.76 15.29-0.76 27.15v1.8c0 0.75 0.45 1.05 1.05 1.05l11.85-0.3c0.9 0 1.66-0.16 2.4-0.9 1.65-1.95 7.2-10.51 12.45-17.4 7.35-9.9 12.3-15.9 18-18.75 3.45-1.8 7.05-2.55 14.4-2.55h12.6c1.65 0 2.55 0.3 2.55 1.35 0 0.6-0.6 1.34-1.65 1.34zm-126.14 17.41c-0.9 0-1.2-0.6-1.5-1.96-0.9-5.24-2.4-7.95-5.7-9.44-3.45-1.5-9-1.65-12.45-1.65-13.5 0-17.55 1.94-17.85 10.64-0.15 3.75 0 14.56 0 18.91v10.2c0 0.75 0.15 1.34 0.75 1.34 3.3 0 18.3-0.29 20.7-0.59 4.95-0.45 6.6-2.4 7.35-4.95 0.3-1.65 0.3-3.3 0.45-4.65 0-0.61 0.3-1.06 1.2-1.06 1.2 0 1.35 1.81 1.35 2.86 0 0.89 0.3 6 0.6 8.55 0.75 6.45 1.05 8.55 1.05 9.3s-0.45 1.34-1.05 1.34-1.05-0.75-2.1-1.65c-1.35-1.2-3.15-1.65-6.3-1.94-3-0.3-20.1-0.3-23.1-0.3-0.75 0-0.9 0.59-0.9 1.35v31.5c0 0.74 0.3 1.19 0.9 1.19 2.7 0 18.45-0.29 20.7-0.59 6.6-0.6 7.65-2.41 8.7-4.65 0.75-1.51 0.9-3.75 0.9-4.65 0-1.06 0.15-1.65 1.05-1.65 1.05 0 1.35 1.49 1.5 2.1 0.3 1.49 0.6 7.05 0.75 8.4 0.3 5.85 1.05 7.34 1.05 8.25 0 0.59-0.15 1.2-0.9 1.2-0.6 0-1.35-0.46-2.1-0.61-1.05-0.14-3.15-0.59-5.55-0.75-2.55-0.14-31.8 0-36 0-3.75 0-12.15 0.3-19.05 0.3-1.95 0-3-0.3-3-1.2 0-0.89 0.9-1.34 2.25-1.34 1.95 0 4.2-0.15 5.25-0.45 4.2-1.2 5.4-2.55 5.7-6.91 0.15-4.04 0.15-7.64 0.15-26.99v-22.5c0-11.7 0-21.75-0.6-27.15-0.45-3.75-1.2-6.15-3.9-6.76-1.2-0.29-2.7-0.45-4.65-0.45-1.65 0-2.1-0.74-2.1-1.34 0-0.9 0.9-1.35 2.55-1.35 2.7 0 6 0.15 9.15 0.3 3.15 0 6 0.15 7.5 0.15 3.9 0 8.85-0.15 15.3-0.3 6.45-0.3 14.4-0.45 24.3-0.45 4.95 0 6.15 0 7.05 3.3 0.75 2.55 1.8 11.25 1.8 14.1 0 1.35-0.15 3-1.2 3zm-92.4 4.05c-1.05 0-1.35-0.61-1.65-2.55-0.45-2.4-2.25-6-4.5-8.55-5.25-5.85-11.7-6.75-23.4-6.75-17.69 0-41.1 14.4-41.1 44.7 0 12.45 2.4 24.74 12.16 33.15 5.99 5.1 13.35 7.2 24.89 7.2 12.15 0 21-3.16 25.5-7.5 3.3-3.3 4.95-7.81 5.1-11.86 0-1.65 0.3-2.69 1.35-2.69 1.2 0 1.65 1.34 1.8 3.14 0.15 2.56 0.15 9.61 0.45 13.81 0.3 4.49 0.6 6 0.6 7.04 0 0.75-0.45 1.36-1.95 1.5-3.9 0.45-8.25 1.35-13.2 2.1-6 0.76-10.95 1.35-19.2 1.35-19.65 0-32.24-5.1-41.84-13.49-12.61-11.25-15.46-26.25-15.46-34.96 0-12.29 3.45-26.69 16.51-37.64 11.99-10.05 27.29-13.8 45.29-13.8 8.55 0 18.6 0.75 23.85 2.85 2.25 0.9 2.85 1.49 3.45 3.75 1.35 4.35 2.85 15.45 2.85 16.94 0 1.06-0.6 2.26-1.5 2.26zm-114.45 72.29c-6.45 0-11.4-0.3-12.9-0.3-2.85 0-9.9 0.3-16.8 0.3-1.95 0-3.29-0.14-3.29-1.2 0-0.75 0.44-1.34 2.1-1.34 1.79 0 4.94 0 6.89-0.76 3.15-1.2 4.36-3.44 4.5-11.25l1.35-56.7h-0.6c-1.94 1.81-19.5 19.81-28.5 28.66-19.2 18.75-39 38.99-40.64 40.64-2.25 2.26-4.05 4.2-5.7 4.2-1.35 0-2.26-1.8-2.26-4.34l-1.19-75.6c-0.15-11.1-0.6-14.55-4.05-15.45-1.8-0.45-4.2-0.61-6-0.61-1.2 0-2.11-0.59-2.11-1.34 0-1.2 1.21-1.35 3.01-1.35 6.75 0 13.04 0.45 14.25 0.45 2.4 0 8.55-0.45 17.1-0.45 1.8 0 2.99 0.3 2.99 1.35 0 0.75-0.74 1.34-2.24 1.34-2.1 0-4.66 0.16-6.9 0.91-2.56 0.9-4.21 3.9-4.5 13.8l-1.5 52.04h0.45c2.54-2.24 16.49-17.69 30.89-31.49 13.8-13.35 30.3-29.1 38.55-36.75 1.35-1.35 3.15-2.7 5.4-2.7 1.05 0 2.1 1.2 2.1 4.05l1.5 80.4c0.15 7.2 1.2 9.44 4.8 10.5 1.65 0.45 2.7 0.45 4.05 0.45 1.5 0 2.25 0.59 2.25 1.34 0 1.06-1.2 1.2-3 1.2zm-162.14-57.14h-25.5c-0.45 0-0.75 0.3-0.45 0.89l12.75 31.8c0.14 0.45 0.29 1.2 0.74 1.2 0.31 0 0.45-0.75 0.6-1.2l12.46-31.94c0.15-0.45 0-0.75-0.6-0.75zm44.69-36.61c-1.5 0-3 0.16-4.95 0.45-2.4 0.46-6.15 2.11-11.24 13.66-8.41 19.35-30.45 70.94-33.61 77.99-1.34 2.86-1.95 4.06-3.89 4.06-1.36 0-2.41-1.51-3.91-5.1l-34.49-79.65c-2.7-6.45-4.95-10.35-10.95-11.25-1.2 0-2.7-0.16-3.9-0.16-1.05 0-1.5-0.59-1.5-1.34 0-1.05 0.75-1.35 2.4-1.35 6.9 0 13.95 0.45 15.3 0.45 4.19 0 10.35-0.45 14.7-0.45 1.35 0 2.1 0.3 2.1 1.35 0 0.75-0.31 1.34-1.96 1.34h-1.94c-4.05 0-5.25 1.36-5.25 3.61 0 1.5 0.6 4.65 1.95 7.8l7.05 17.25c0.3 0.75 0.45 0.9 1.2 0.9h31.05c0.59 0 1.05-0.15 1.34-0.9l10.2-25.8c0.61-1.5-0.3-2.7-1.2-2.86-1.34-0.14-1.65-0.59-1.65-1.34 0-0.9 1.5-0.9 3.9-1.05 11.1-0.3 20.7-0.3 25.35-0.3 4.95 0 5.7 0.3 5.7 1.35 0 0.9-0.6 1.34-1.8 1.34zm-121.05 25.21c-1.2 0-1.5-0.61-1.95-3-0.6-2.7-2.55-7.05-5.1-9.9-6-6.9-14.1-8.4-27.45-8.4-20.1 0-47.25 17.7-47.25 53.4 0 14.55 2.86 28.8 13.8 38.85 6.61 5.99 15.15 9.29 28.2 9.29 13.8 0 25.5-4.05 30.45-9.29 3.75-3.91 5.7-9.15 5.85-13.8 0-2.1 0.3-3.3 1.5-3.3 1.35 0 1.65 1.2 1.8 3.44 0.3 3 0.15 11.25 0.45 16.21 0.3 5.24 0.75 7.05 0.75 8.25 0 0.9-0.6 1.65-2.25 1.79-4.5 0.45-9.3 1.8-15 2.55-6.9 0.9-12.45 1.51-21.75 1.51-22.35 0-36.6-6.01-47.39-15.9-14.4-13.2-17.55-30.9-17.55-41.1 0-14.56 3.89-31.35 18.6-44.25 13.64-11.85 30.89-16.35 51.44-16.35 9.6 0 21 1.04 27 3.45 2.55 1.05 3.15 1.79 3.9 4.35 1.5 5.1 3.3 18.15 3.3 19.94 0 1.21-0.3 2.26-1.35 2.26zm1085.1 237.2c0 1.04 0.29 1.49 1.2 1.79 1.34 0.31 4.49 0.45 7.79 0.45 7.81 0 20.1-4.65 20.1-22.64 0-10.5-4.49-16.06-8.55-18.9-2.24-1.65-4.05-2.1-9.29-2.1-3.31 0-7.21 0.29-10.05 1.19-0.91 0.46-1.2 0.91-1.2 2.26zm13.95-86.25c0 0.6-0.6 1.34-1.65 1.34-1.66 0-4.51 0.16-6.45 0.45-4.05 0.61-4.65 3.01-5.1 6.76-0.6 5.4-0.75 15.29-0.75 27.15v1.8c0 0.75 0.44 1.05 1.05 1.05l11.85-0.3c0.89 0 1.65-0.16 2.39-0.9 1.65-1.95 7.21-10.51 12.45-17.4 7.35-9.9 12.3-15.9 18-18.75 3.45-1.8 7.05-2.55 14.4-2.55h12.6c1.65 0 2.55 0.3 2.55 1.35 0 0.6-0.6 1.34-1.65 1.34s-1.8 0-3.15 0.31c-2.1 0.45-6.75 1.05-14.1 8.4-7.95 7.95-17.24 19.5-28.94 33.89 12.89 10.35 18.29 18.75 18.29 28.21 0 8.55-5.54 15-9.29 17.54-7.06 4.65-16.65 5.4-25.05 5.4-4.06 0-16.05-0.3-20.55-0.3-2.71 0-11.1 0.3-18 0.3-1.95 0-3-0.3-3-1.2 0-0.89 0.9-1.34 2.25-1.34 1.95 0 4.19-0.15 5.24-0.45 4.21-1.2 5.4-2.55 5.71-6.91 0.14-4.04 0.14-7.64 0.14-26.99v-22.5c0-11.7 0-21.75-0.59-27.15-0.46-3.75-1.2-6.15-3.9-6.76-1.2-0.29-2.7-0.45-4.65-0.45-1.65 0-2.1-0.74-2.1-1.34 0-0.9 0.9-1.35 2.55-1.35 5.25 0 13.64 0.45 16.19 0.45 1.96 0 12.9-0.45 20.56-0.45 1.65 0 2.7 0.45 2.7 1.35zm-112.8 3.9c-24.9 0-39.9 20.7-39.9 46.95 0 31.49 17.25 39.29 31.95 39.29 21.3 0 38.25-17.4 38.25-45.59 0-36.3-21-40.65-30.3-40.65zm49.94 45.3c0 29.24-20.69 47.69-53.99 47.69-40.05 0-55.35-28.19-55.35-49.94 0-22.66 15.6-49.95 54-49.95 34.05 0 55.34 22.95 55.34 52.2zm-157.94-50.55c1.95 0 2.85 0.45 2.85 1.35 0 0.6-0.6 1.34-2.25 1.34-1.8 0-4.65 0.16-6.45 0.45-3.9 0.61-4.8 3.01-5.25 6.76-0.6 5.4-0.75 14.4-0.75 26.7v10.5c0 0.9 0.3 1.04 0.9 1.04 2.25 0 17.85-0.14 21.15-0.45 4.05-0.3 5.7-2.85 6.3-4.64 0.6-1.51 0.9-3 0.9-3.9s0.45-1.81 1.2-1.81c1.35 0 1.5 1.81 1.5 2.85 0 0.9 0.15 6.75 0.45 9.31 0.45 4.04 1.05 7.49 1.05 8.24 0 0.76-0.3 1.2-0.75 1.2-0.75 0-1.05-0.59-1.8-1.34-1.2-1.65-3.15-2.1-5.55-2.25-1.95-0.16-3.75-0.16-6-0.16l-18.45-0.14c-0.75 0-0.9 0.45-0.9 1.2v30.9c0 1.49 0.45 1.79 1.2 1.79l21.9-0.44c4.95-0.15 7.5-2.1 8.4-3.9 0.9-1.81 0.75-3.75 0.75-4.81 0-1.49 0.75-2.1 1.65-2.1s1.2 1.51 1.35 2.55c0.15 1.51 0.45 9.01 0.6 10.36 0.45 3.3 1.05 4.79 1.05 5.7 0 0.59-0.45 1.2-0.9 1.2-0.75 0-1.35-0.61-2.1-0.75-1.35-0.31-3-0.45-5.4-0.61-3.15-0.14-32.4 0-37.5 0-3.75 0-12.15 0.3-18.9 0.3-2.1 0-3.15-0.3-3.15-1.2 0-0.89 1.05-1.34 2.25-1.34 1.95 0 4.2-0.15 5.25-0.45 4.2-1.06 5.4-2.55 5.7-6.91 0.15-4.04 0.15-7.64 0.15-26.99v-22.5c0-12.3 0-21.75-0.6-27.15-0.45-3.75-1.2-6.15-3.9-6.76-1.2-0.29-2.7-0.45-4.65-0.45-1.5 0-1.95-0.74-1.95-1.34 0-1.05 0.9-1.35 2.7-1.35 4.95 0 13.35 0.45 16.8 0.45s12.75-0.45 21.15-0.45zm-120.75 20.1c-0.9 0-1.2-0.6-1.5-1.96-0.9-5.24-2.4-7.95-5.69-9.44-3.46-1.5-9.01-1.65-12.46-1.65-13.5 0-17.54 1.94-17.85 10.64-0.14 3.75 0 14.56 0 18.91v10.2c0 0.75 0.15 1.34 0.75 1.34 3.31 0 18.31-0.29 20.7-0.59 4.95-0.45 6.6-2.4 7.35-4.95 0.3-1.65 0.3-3.3 0.45-4.65 0-0.61 0.3-1.06 1.2-1.06 1.2 0 1.35 1.81 1.35 2.86 0 0.89 0.3 6 0.61 8.55 0.74 6.45 1.04 8.55 1.04 9.3s-0.45 1.34-1.04 1.34c-0.61 0-1.05-0.75-2.1-1.65-1.36-1.2-3.16-1.65-6.31-1.94-3-0.3-20.1-0.3-23.09-0.3-0.76 0-0.91 0.59-0.91 1.35v31.5c0 0.74 0.31 1.19 0.91 1.19 2.7 0 18.44-0.29 20.69-0.59 6.6-0.6 7.65-2.41 8.71-4.65 0.74-1.51 0.89-3.75 0.89-4.65 0-1.06 0.16-1.65 1.05-1.65 1.05 0 1.35 1.49 1.5 2.1 0.3 1.49 0.6 7.05 0.75 8.4 0.3 5.85 1.05 7.34 1.05 8.25 0 0.59-0.15 1.2-0.9 1.2-0.6 0-1.35-0.46-2.1-0.61-1.05-0.14-3.15-0.59-5.55-0.75-2.55-0.14-31.8 0-36 0-3.75 0-12.14 0.3-19.04 0.3-1.95 0-3-0.3-3-1.2 0-0.89 0.9-1.34 2.24-1.34 1.96 0 4.2-0.15 5.25-0.45 4.21-1.2 5.4-2.55 5.71-6.91 0.15-4.04 0.15-7.64 0.15-26.99v-22.5c0-11.7 0-21.75-0.6-27.15-0.46-3.75-1.2-6.15-3.9-6.76-1.21-0.29-2.7-0.45-4.65-0.45-1.65 0-2.1-0.74-2.1-1.34 0-0.9 0.9-1.35 2.55-1.35 2.7 0 6 0.15 9.15 0.3 3.15 0 5.99 0.15 7.5 0.15 3.89 0 8.84-0.15 15.29-0.3 6.45-0.3 14.4-0.45 24.3-0.45 4.95 0 6.15 0 7.05 3.3 0.75 2.55 1.8 11.25 1.8 14.1 0 1.35-0.15 3-1.2 3zm-107.7-18.75c0 0.6-0.6 1.34-2.1 1.34-1.95 0-4.95 0.16-6.75 0.45-3.9 0.61-4.65 3.01-5.1 6.61-0.6 5.55-0.75 15.6-0.75 27.3v51.59l16.65-0.29c11.85-0.16 15.3-4.05 15.6-7.35l0.15-1.35c0.15-1.96 0.45-2.55 1.5-2.55 0.75 0 1.05 0.74 1.2 2.1 0 3.3 0.3 12.74 0.3 15.45 0 1.94-0.15 2.69-1.05 2.69-0.45 0-1.5-0.3-3.6-0.59-1.95-0.31-4.8-0.61-9-0.61h-53.55c-4.35 0-9.3 0.16-13.19 0.61-3.31 0.45-4.66 1.49-5.71 1.49-0.74 0-1.19-0.74-1.5-2.39-0.29-1.06-2.84-13.35-2.84-15.45 0-1.36 0.29-2.1 1.19-2.1 0.91 0 1.2 0.6 1.51 1.64 0.29 0.91 0.9 2.56 2.24 4.36 1.96 2.85 5.11 3.75 12.75 3.89l19.66 0.45v-51.59c0-11.7 0-21.75-0.61-27.15-0.44-3.75-1.2-6.15-3.9-6.76-1.05-0.29-2.7-0.45-4.65-0.45-1.65 0-2.09-0.74-2.09-1.34 0-0.9 0.89-1.35 2.54-1.35 5.25 0 14.25 0.45 17.25 0.45 3.75 0 12.6-0.45 21.3-0.45 1.5 0 2.55 0.45 2.55 1.35zm-177.3 85.19c0.31-4.04 0.15-7.64 0.15-26.99v-18.75c0-18.46 5.25-27.9 12.01-33.75 9.6-8.4 23.24-8.7 30.14-8.7 8.55 0 18.6 1.35 27.9 9.15 11.1 9.15 12.6 24.15 12.6 38.4v13.65c0 19.35 0.15 22.95 0.3 26.99 0.3 4.5 1.2 6.3 4.8 6.91 1.65 0.3 2.4 0.45 3.9 0.45s2.25 0.45 2.25 1.34c0 0.9-0.9 1.2-2.7 1.2-5.1 0-13.95-0.3-15.45-0.3-0.15 0-9 0.3-15.75 0.3-1.8 0-2.7-0.3-2.7-1.2 0-0.89 0.75-1.34 2.25-1.34s3.75-0.15 4.8-0.45c4.2-1.2 5.25-2.55 5.55-6.91 0.15-4.04 0.3-7.64 0.3-26.99v-16.05c0-13.05-0.3-24.15-7.65-31.05-5.25-5.1-12-6.75-17.7-6.75-4.49 0-10.8 0.45-16.65 5.1-6.45 5.1-10.05 12.3-10.05 30.9v17.85c0 19.35 0 22.95 0.31 26.99 0.29 4.5 1.34 6.3 4.8 6.91 1.64 0.3 2.39 0.45 3.89 0.45 1.36 0 2.1 0.45 2.1 1.34 0 0.9-0.9 1.2-2.84 1.2-4.8 0-13.66-0.3-16.96-0.3-3.89 0-12.75 0.3-19.79 0.3-1.96 0-2.85-0.3-2.85-1.2 0-0.89 0.75-1.34 2.25-1.34 1.79 0 4.04-0.15 5.09-0.45 4.2-1.2 5.4-2.41 5.7-6.91zm-27 10.8c-0.45 0-1.5-0.3-3.6-0.59-1.95-0.31-4.8-0.61-9-0.61h-53.55c-4.35 0-9.3 0.16-13.19 0.61-3.31 0.45-4.65 1.49-5.71 1.49-0.75 0-1.19-0.74-1.5-2.39-0.29-1.06-2.84-13.35-2.84-15.45 0-1.36 0.29-2.1 1.19-2.1 0.91 0 1.2 0.6 1.51 1.64 0.29 0.91 0.89 2.56 2.24 4.36 1.96 2.85 5.11 3.75 12.75 3.89l19.65 0.45v-51.59c0-11.7 0-21.75-0.6-27.15-0.44-3.75-1.2-6.15-3.9-6.76-1.05-0.29-2.7-0.45-4.65-0.45-1.65 0-2.1-0.74-2.1-1.34 0-0.9 0.9-1.35 2.55-1.35 5.25 0 14.25 0.45 17.25 0.45 3.75 0 12.6-0.45 21.3-0.45 1.5 0 2.55 0.45 2.55 1.35 0 0.6-0.6 1.34-2.1 1.34-1.95 0-4.95 0.16-6.75 0.45-3.9 0.61-4.65 3.01-5.1 6.61-0.6 5.55-0.75 15.6-0.75 27.3v51.59l16.65-0.29c11.85-0.16 15.3-4.05 15.6-7.35l0.15-1.35c0.15-1.96 0.45-2.55 1.5-2.55 0.75 0 1.05 0.74 1.2 2.1 0 3.3 0.3 12.74 0.3 15.45 0 1.94-0.15 2.69-1.05 2.69zm-138.74-88.04c-0.46-3.75-1.21-5.55-3.91-6.16-1.2-0.29-2.7-0.45-4.64-0.45-1.65 0-2.1-0.74-2.1-1.34 0-0.9 0.89-1.35 2.55-1.35 5.24 0 14.24 0.45 17.24 0.45 3.6 0 12.6-0.45 21.3-0.45 1.5 0 2.55 0.45 2.55 1.35 0 0.6-0.6 1.34-2.1 1.34-1.95 0-4.95 0.16-6.75 0.45-3.9 0.61-4.8 2.56-5.25 6.01-0.6 5.4-0.6 15.6-0.6 27.9v22.5c0 19.35 0 22.95 0.3 26.99 0.3 4.5 1.35 6.3 4.95 6.91 1.5 0.3 2.55 0.45 3.9 0.45s2.1 0.3 2.1 1.49c0 0.75-1.05 1.05-2.7 1.05-5.1 0-13.65-0.3-16.95-0.3-3.75 0-12.75 0.3-17.7 0.3-2.1 0-3.15-0.3-3.15-1.05 0-1.19 0.76-1.49 2.1-1.49 1.65 0 3.3-0.15 4.8-0.61 2.85-0.9 4.2-2.39 4.5-6.75 0.16-4.04 0.16-7.64 0.16-26.99v-22.5c0-12.3 0-22.5-0.6-27.75zm-49.96 79.05c11.85-0.16 15.3-4.05 15.6-7.35l0.15-1.35c0.15-1.96 0.45-2.55 1.5-2.55 0.75 0 1.05 0.74 1.2 2.1 0 3.3 0.3 12.74 0.3 15.45 0 1.94-0.15 2.69-1.05 2.69-0.45 0-1.5-0.3-3.6-0.59-1.95-0.31-4.8-0.61-9-0.61h-53.55c-4.35 0-9.3 0.16-13.2 0.61-3.3 0.45-4.65 1.49-5.7 1.49-0.75 0-1.2-0.74-1.5-2.39-0.3-1.06-2.84-13.35-2.84-15.45 0-1.36 0.29-2.1 1.19-2.1s1.2 0.6 1.51 1.64c0.29 0.91 0.89 2.56 2.24 4.36 1.95 2.85 5.1 3.75 12.75 3.89l19.65 0.45v-51.59c0-11.7 0-21.75-0.6-27.15-0.45-3.75-1.2-6.15-3.9-6.76-1.05-0.29-2.7-0.45-4.65-0.45-1.65 0-2.1-0.74-2.1-1.34 0-0.9 0.9-1.35 2.55-1.35 5.25 0 14.25 0.45 17.25 0.45 3.75 0 12.6-0.45 21.3-0.45 1.5 0 2.55 0.45 2.55 1.35 0 0.6-0.6 1.34-2.1 1.34-1.95 0-4.95 0.16-6.75 0.45-3.9 0.61-4.65 3.01-5.1 6.61-0.6 5.55-0.75 15.6-0.75 27.3v51.59zm-147.3-15.75c0-11.25 5.1-19.81 20.7-28.95l7.65-4.5c11.7-6.9 13.05-12.45 13.05-18 0-9-6.9-16.2-18.3-16.2-8.25 0-18.15 3.15-21 12.6-0.75 2.24-1.2 4.95-1.2 6.6 0 0.9-0.15 2.1-1.35 2.1-1.05 0-1.65-1.35-1.65-3.3-0.15-2.1-0.75-10.05-0.75-16.95 0-2.86 0.45-3.45 2.55-4.35 5.7-2.55 13.8-3.3 21.45-3.3 7.05 0 15.75 0.75 22.05 5.25 9.6 6.75 13.2 14.4 13.2 23.85 0 11.54-5.4 21.3-22.8 30.9l-5.4 3c-11.85 6.6-13.95 11.09-13.95 16.79 0 8.71 8.55 13.66 18 13.66 8.55 0 12.75-3.61 14.7-6.01 2.85-3.29 3.45-7.2 3.45-8.4 0-1.49 0.45-2.24 1.35-2.24 1.05 0 1.65 1.34 1.65 4.05 0 10.05 0.45 13.64 0.45 15.29 0 0.9-0.6 1.36-1.8 1.65-3.45 0.9-10.2 2.1-18.75 2.1-18.3 0-33.3-10.05-33.3-25.64zm-107.09-69.91c-2.1 0-4.66 0.16-6.9 0.91-2.56 0.9-4.21 3.9-4.51 13.8l-1.5 52.04h0.45c2.55-2.24 16.5-17.69 30.9-31.49 13.8-13.35 30.3-29.1 38.55-36.75 1.35-1.35 3.15-2.7 5.4-2.7 1.05 0 2.1 1.2 2.1 4.05l1.5 80.4c0.15 7.2 1.2 9.44 4.8 10.5 1.65 0.45 2.7 0.45 4.05 0.45 1.5 0 2.25 0.59 2.25 1.34 0 1.06-1.2 1.2-3 1.2-6.45 0-11.4-0.3-12.9-0.3-2.85 0-9.9 0.3-16.8 0.3-1.95 0-3.3-0.14-3.3-1.2 0-0.75 0.45-1.34 2.1-1.34 1.8 0 4.95 0 6.9-0.76 3.15-1.2 4.35-3.44 4.5-11.25l1.35-56.7h-0.6c-1.95 1.81-19.5 19.81-28.5 28.66-19.2 18.75-39 38.99-40.64 40.64-2.25 2.26-4.06 4.2-5.71 4.2-1.34 0-2.25-1.8-2.25-4.34l-1.19-75.6c-0.16-11.1-0.6-14.55-4.06-15.45-1.79-0.45-4.2-0.61-5.99-0.61-1.2 0-2.11-0.59-2.11-1.34 0-1.2 1.2-1.35 3.01-1.35 6.74 0 13.04 0.45 14.24 0.45 2.41 0 8.55-0.45 17.1-0.45 1.8 0 3 0.3 3 1.35 0 0.75-0.75 1.34-2.24 1.34zm-89.71 8.11c-0.45-4.36-1.34-6.9-4.35-7.5-1.35-0.3-3.15-0.61-5.39-0.61-1.8 0-2.41-0.44-2.41-1.19 0-1.05 1.05-1.5 3-1.5 6 0 15.45 0.45 18.9 0.45 4.05 0 13.5-0.45 23.4-0.45 1.65 0 2.85 0.45 2.85 1.5 0 0.75-0.75 1.19-2.4 1.19-2.24 0-5.55 0.31-7.64 0.61-4.51 0.6-5.56 3.3-6.01 7.34-0.6 6.46-0.6 18.3-0.6 32.86v26.39c0 22.8 0 27 0.3 31.81 0.3 5.24 1.51 7.79 5.55 8.54 1.8 0.31 3 0.45 4.51 0.45 1.49 0 2.39 0.31 2.39 1.51 0 0.9-1.2 1.2-3.15 1.2-5.7 0-14.55-0.45-18.3-0.45-4.35 0-13.8 0.45-19.49 0.45-2.41 0-3.6-0.3-3.6-1.2 0-1.2 0.9-1.51 2.39-1.51 1.81 0 3.75-0.14 5.4-0.59 3.31-0.75 4.8-3.3 5.1-8.4 0.3-4.81 0.3-9.01 0.3-31.81v-26.39c0-14.56 0-26.4-0.75-32.7zm1888.3 263.14c-2.55 0-11.25-0.3-14.1-0.3-3.9 0-8.55 0.3-12.89 0.3-1.51 0-2.26-0.3-2.26-1.2 0-1.04 1.2-1.2 2.4-1.49 2.25-0.46 2.85-1.65 2.85-2.85 0-1.65-0.6-3.91-1.95-6.75-1.95-3.91-18-31.2-19.65-34.2-2.24 3.59-19.5 33.45-21.89 37.34-1.06 1.8-1.65 3.31-1.65 4.35 0 1.05 0.74 1.65 1.79 1.95 2.1 0.61 3 0.61 3 1.65 0 0.9-0.75 1.2-1.95 1.2-6 0-12.15-0.3-15-0.3-4.35 0-14.25 0.3-16.49 0.3-1.66 0-2.55-0.3-2.55-1.2 0-0.89 0.89-1.34 1.95-1.34 1.64 0 3.9-0.76 5.55-1.65 2.55-1.35 5.24-4.35 8.54-9.01 4.65-6.75 22.66-34.79 23.56-36.75 1.79-3.75 2.99-6.44 2.99-13.35v-10.49c0-2.1 0-7.35-0.45-12.75-0.3-3.75-1.34-6.15-4.05-6.76-1.2-0.29-2.85-0.45-4.65-0.45-1.5 0-2.1-0.74-2.1-1.34 0-1.05 1.05-1.35 2.86-1.35 4.95 0 13.79 0.45 17.1 0.45 3.59 0 12.45-0.45 20.69-0.45 1.81 0 2.85 0.45 2.85 1.35 0 0.6-0.75 1.34-2.25 1.34-1.8 0-4.64 0.16-6.6 0.45-3.89 0.61-5.1 3.01-5.4 6.76-0.3 5.4-0.3 10.65-0.3 12.75v10.2c0 4.2-0.29 8.1 1.65 12.75 2.4 5.4 21.3 35.7 25.65 40.8 2.86 3.44 4.05 4.64 6.9 5.99 1.95 0.9 4.35 1.51 5.7 1.51 1.5 0 2.55 0.59 2.55 1.49 0 0.75-0.9 1.05-2.4 1.05zm-105.6 0.9c-0.45 0-1.49-0.3-3.59-0.59-1.95-0.31-4.81-0.61-9.01-0.61h-53.54c-4.35 0-9.3 0.16-13.2 0.61-3.3 0.45-4.65 1.49-5.7 1.49-0.75 0-1.2-0.74-1.5-2.39-0.3-1.06-2.85-13.35-2.85-15.45 0-1.36 0.3-2.1 1.2-2.1s1.2 0.6 1.5 1.64c0.31 0.91 0.9 2.56 2.25 4.36 1.95 2.85 5.1 3.75 12.75 3.89l19.65 0.45v-51.59c0-11.7 0-21.75-0.6-27.15-0.45-3.75-1.21-6.15-3.9-6.76-1.06-0.29-2.7-0.45-4.65-0.45-1.65 0-2.1-0.74-2.1-1.34 0-0.9 0.9-1.35 2.55-1.35 5.25 0 14.25 0.45 17.25 0.45 3.75 0 12.59-0.45 21.3-0.45 1.5 0 2.54 0.45 2.54 1.35 0 0.6-0.59 1.34-2.1 1.34-1.94 0-4.94 0.16-6.74 0.45-3.9 0.61-4.65 3.01-5.1 6.61-0.6 5.55-0.75 15.6-0.75 27.3v51.59l16.65-0.29c11.84-0.16 15.3-4.05 15.59-7.35l0.16-1.35c0.15-1.96 0.45-2.55 1.49-2.55 0.76 0 1.06 0.74 1.2 2.1 0 3.3 0.31 12.74 0.31 15.45 0 1.94-0.15 2.69-1.06 2.69zm-107.84-94.65c-1.94 0-4.95 0.16-6.75 0.45-3.89 0.61-4.79 2.56-5.24 6.01-0.61 5.4-0.61 15.6-0.61 27.9v22.5c0 19.35 0 22.95 0.31 26.99 0.3 4.5 1.34 6.3 4.95 6.91 1.49 0.3 2.55 0.45 3.89 0.45 1.35 0 2.1 0.3 2.1 1.49 0 0.75-1.04 1.05-2.69 1.05-5.11 0-13.65-0.3-16.96-0.3-3.75 0-12.75 0.3-17.69 0.3-2.1 0-3.16-0.3-3.16-1.05 0-1.19 0.76-1.49 2.1-1.49 1.65 0 3.31-0.15 4.81-0.61 2.84-0.9 4.2-2.39 4.49-6.75 0.16-4.04 0.16-7.64 0.16-26.99v-22.5c0-12.3 0-22.5-0.61-27.75-0.45-3.75-1.2-5.55-3.89-6.16-1.21-0.29-2.7-0.45-4.65-0.45-1.65 0-2.1-0.74-2.1-1.34 0-0.9 0.9-1.35 2.55-1.35 5.24 0 14.24 0.45 17.24 0.45 3.61 0 12.6-0.45 21.3-0.45 1.51 0 2.55 0.45 2.55 1.35 0 0.6-0.6 1.34-2.1 1.34zm-89.09 55.66-5.4 3c-11.86 6.6-13.96 11.09-13.96 16.79 0 8.71 8.56 13.66 18 13.66 8.56 0 12.76-3.61 14.71-6.01 2.85-3.29 3.45-7.2 3.45-8.4 0-1.49 0.44-2.24 1.34-2.24 1.06 0 1.65 1.34 1.65 4.05 0 10.05 0.45 13.64 0.45 15.29 0 0.9-0.59 1.36-1.79 1.65-3.45 0.9-10.21 2.1-18.75 2.1-18.3 0-33.3-10.05-33.3-25.64 0-11.25 5.09-19.81 20.7-28.95l7.64-4.5c11.7-6.9 13.05-12.45 13.05-18 0-9-6.89-16.2-18.29-16.2-8.25 0-18.15 3.15-21.01 12.6-0.75 2.24-1.2 4.95-1.2 6.6 0 0.9-0.14 2.1-1.34 2.1-1.05 0-1.65-1.35-1.65-3.3-0.15-2.1-0.76-10.05-0.76-16.95 0-2.86 0.45-3.45 2.55-4.35 5.71-2.55 13.81-3.3 21.46-3.3 7.05 0 15.75 0.75 22.05 5.25 9.6 6.75 13.19 14.4 13.19 23.85 0 11.54-5.4 21.3-22.79 30.9zm-97.51-10.05c-2.25-1.65-4.04-2.1-9.3-2.1-3.3 0-7.2 0.29-10.05 1.19-0.9 0.46-1.2 0.91-1.2 2.26v37.95c0 1.04 0.3 1.49 1.2 1.79 1.35 0.31 4.51 0.45 7.81 0.45 7.79 0 20.09-4.65 20.09-22.64 0-10.5-4.5-16.06-8.55-18.9zm53.09-45.61c-1.04 0-1.79 0-3.14 0.31-2.1 0.45-6.75 1.05-14.1 8.4-7.95 7.95-17.25 19.5-28.95 33.89 12.9 10.35 18.3 18.75 18.3 28.21 0 8.55-5.55 15-9.3 17.54-7.05 4.65-16.65 5.4-25.05 5.4-4.04 0-16.05-0.3-20.55-0.3-2.69 0-11.1 0.3-18 0.3-1.95 0-2.99-0.3-2.99-1.2 0-0.89 0.89-1.34 2.24-1.34 1.95 0 4.2-0.15 5.26-0.45 4.19-1.2 5.4-2.55 5.69-6.91 0.16-4.04 0.16-7.64 0.16-26.99v-22.5c0-11.7 0-21.75-0.61-27.15-0.45-3.75-1.2-6.15-3.9-6.76-1.2-0.29-2.69-0.45-4.65-0.45-1.65 0-2.09-0.74-2.09-1.34 0-0.9 0.89-1.35 2.54-1.35 5.25 0 13.66 0.45 16.21 0.45 1.94 0 12.9-0.45 20.54-0.45 1.65 0 2.7 0.45 2.7 1.35 0 0.6-0.6 1.34-1.65 1.34-1.64 0-4.5 0.16-6.45 0.45-4.05 0.61-4.65 3.01-5.1 6.76-0.6 5.4-0.75 15.29-0.75 27.15v1.8c0 0.75 0.45 1.05 1.06 1.05l11.84-0.3c0.9 0 1.65-0.16 2.4-0.9 1.66-1.95 7.2-10.51 12.45-17.4 7.35-9.9 12.3-15.9 18-18.75 3.45-1.8 7.05-2.55 14.4-2.55h12.6c1.65 0 2.55 0.3 2.55 1.35 0 0.6-0.6 1.34-1.66 1.34zm-192.44 91.21c1.96 0 4.2-0.15 5.26-0.45 4.2-1.2 5.4-2.55 5.69-6.91 0.16-4.04 0.16-7.64 0.16-26.99v-22.5c0-11.7 0-21.75-0.61-27.15-0.45-3.75-1.2-6.15-3.9-6.76-1.2-0.29-2.69-0.45-4.64-0.45-1.65 0-2.1-0.74-2.1-1.34 0-0.9 0.9-1.35 2.55-1.35 2.69 0 5.99 0.15 9.15 0.3 3.14 0 5.99 0.15 7.5 0.15 3.89 0 8.84-0.15 15.29-0.3 6.45-0.3 14.4-0.45 24.31-0.45 4.95 0 6.14 0 7.05 3.3 0.74 2.55 1.79 11.25 1.79 14.1 0 1.35-0.14 3-1.2 3-0.9 0-1.2-0.6-1.5-1.96-0.9-5.24-2.39-7.95-5.7-9.44-3.45-1.5-9-1.65-12.45-1.65-13.49 0-17.55 1.94-17.85 10.64-0.14 3.75 0 14.56 0 18.91v10.2c0 0.75 0.16 1.34 0.75 1.34 3.3 0 18.3-0.29 20.71-0.59 4.94-0.45 6.59-2.4 7.34-4.95 0.3-1.65 0.3-3.3 0.45-4.65 0-0.61 0.3-1.06 1.2-1.06 1.2 0 1.35 1.81 1.35 2.86 0 0.89 0.3 6 0.6 8.55 0.76 6.45 1.05 8.55 1.05 9.3s-0.45 1.34-1.05 1.34-1.05-0.75-2.1-1.65c-1.34-1.2-3.15-1.65-6.29-1.94-3.01-0.3-20.11-0.3-23.11-0.3-0.74 0-0.9 0.59-0.9 1.35v31.5c0 0.74 0.3 1.19 0.9 1.19 2.71 0 18.46-0.29 20.7-0.59 6.61-0.6 7.65-2.41 8.7-4.65 0.76-1.51 0.9-3.75 0.9-4.65 0-1.06 0.15-1.65 1.05-1.65 1.05 0 1.36 1.49 1.5 2.1 0.3 1.49 0.6 7.05 0.75 8.4 0.31 5.85 1.05 7.34 1.05 8.25 0 0.59-0.15 1.2-0.9 1.2-0.6 0-1.35-0.46-2.1-0.61-1.04-0.14-3.14-0.59-5.55-0.75-2.54-0.14-31.79 0-35.99 0-3.75 0-12.16 0.3-19.05 0.3-1.96 0-3-0.3-3-1.2 0-0.89 0.9-1.34 2.24-1.34zm-13.2 2.54c-4.04 0-10.2-0.3-12.45-0.3-1.65 0-7.5 0.3-14.09 0.3-2.56 0-3.75-0.3-3.75-1.2 0-0.89 1.05-1.34 2.24-1.34 1.65 0 3.75-0.15 5.26-0.61 1.19-0.45 1.79-0.9 1.79-2.25 0-1.04-0.6-2.99-1.2-4.64-3.15-8.4-20.09-49.51-25.79-62.7h-0.45l-22.2 57.15c-1.8 4.49-3 7.95-3 9.6 0 1.19 0.45 1.94 1.35 2.55 1.05 0.75 3 0.9 5.1 0.9 1.2 0 2.1 0.45 2.1 1.34 0 0.9-1.5 1.2-3.15 1.2-6.6 0-13.5-0.3-16.8-0.3-4.65 0-12.15 0.3-19.2 0.3-1.95 0-3.3-0.14-3.3-1.2 0-0.75 0.3-1.34 1.5-1.34 1.05 0 3.15 0 5.1-0.45 4.8-1.2 6.75-2.41 9.75-9.46l33.29-77.99c2.56-6 3.61-7.65 5.41-7.65s3 1.95 6.29 9.3c3.01 6.45 9.15 20.4 17.56 39 7.19 15.6 10.65 22.5 15.9 34.49 3.44 8.11 5.24 10.05 6.89 11.25 2.26 1.65 5.11 1.51 6.46 1.51 1.34 0 2.1 0.45 2.1 1.34 0 0.9-1.06 1.2-2.71 1.2zm-156.74-2.54c1.65 0 3.3-0.15 4.8-0.61 2.85-0.9 4.2-2.39 4.5-6.75 0.15-4.04 0.15-7.64 0.15-26.99v-22.5c0-12.3 0-22.5-0.6-27.75-0.45-3.75-1.2-5.55-3.9-6.16-1.2-0.29-2.7-0.45-4.65-0.45-1.65 0-2.1-0.74-2.1-1.34 0-0.9 0.9-1.35 2.55-1.35 5.25 0 14.25 0.45 17.25 0.45 3.6 0 12.6-0.45 21.3-0.45 1.5 0 2.55 0.45 2.55 1.35 0 0.6-0.6 1.34-2.1 1.34-1.96 0-4.95 0.16-6.75 0.45-3.9 0.61-4.8 2.56-5.25 6.01-0.6 5.4-0.6 15.6-0.6 27.9v22.5c0 19.35 0 22.95 0.3 26.99 0.3 4.5 1.35 6.3 4.94 6.91 1.51 0.3 2.56 0.45 3.91 0.45s2.1 0.3 2.1 1.49c0 0.75-1.05 1.05-2.7 1.05-5.1 0-13.65-0.3-16.95-0.3-3.75 0-12.75 0.3-17.7 0.3-2.1 0-3.15-0.3-3.15-1.05 0-1.19 0.75-1.49 2.1-1.49zm-136.65-93.9c6.75 0 13.05 0.45 14.25 0.45 2.4 0 8.55-0.45 17.1-0.45 1.8 0 3 0.3 3 1.35 0 0.75-0.75 1.34-2.25 1.34-2.1 0-4.65 0.16-6.9 0.91-2.55 0.9-4.2 3.9-4.5 13.8l-1.5 52.04h0.45c2.55-2.24 16.5-17.69 30.9-31.49 13.8-13.35 30.3-29.1 38.55-36.75 1.35-1.35 3.15-2.7 5.4-2.7 1.05 0 2.1 1.2 2.1 4.05l1.5 80.4c0.15 7.2 1.2 9.44 4.8 10.5 1.65 0.45 2.7 0.45 4.04 0.45 1.51 0 2.26 0.59 2.26 1.34 0 1.06-1.21 1.2-3 1.2-6.45 0-11.4-0.3-12.9-0.3-2.85 0-9.9 0.3-16.8 0.3-1.95 0-3.3-0.14-3.3-1.2 0-0.75 0.45-1.34 2.1-1.34 1.8 0 4.95 0 6.9-0.76 3.15-1.2 4.35-3.44 4.5-11.25l1.35-56.7h-0.6c-1.95 1.81-19.5 19.81-28.5 28.66-19.2 18.75-39 38.99-40.65 40.64-2.25 2.26-4.05 4.2-5.7 4.2-1.35 0-2.25-1.8-2.25-4.34l-1.2-75.6c-0.15-11.1-0.6-14.55-4.05-15.45-1.8-0.45-4.2-0.61-6-0.61-1.2 0-2.1-0.59-2.1-1.34 0-1.2 1.2-1.35 3-1.35zm-132.89 110.69c2.1 0 4.64-0.14 5.85-0.45 4.94-1.04 6.14-3.44 6.45-8.54 0.29-4.81 0.29-9.01 0.29-31.81v-21.89c0-21.75 5.7-32.85 13.35-39.75 10.95-9.9 25.35-10.35 33.3-10.35 9.75 0 20.55 1.65 31.2 10.8 12.6 10.8 14.25 28.5 14.25 45.15v16.04c0 22.8 0 27 0.3 31.81 0.3 5.24 1.5 7.79 5.55 8.54 1.8 0.31 2.7 0.45 4.35 0.45 1.8 0 2.7 0.31 2.7 1.35 0 1.06-1.05 1.36-3.15 1.36-5.85 0-15.3-0.45-17.1-0.45-0.15 0-9.6 0.45-17.25 0.45-2.1 0-3.15-0.3-3.15-1.36 0-1.04 0.9-1.35 2.55-1.35s4.2-0.14 5.4-0.45c4.95-1.04 6.15-3.44 6.45-8.54 0.3-4.81 0.3-9.01 0.3-31.81v-18.75c0-15.45-0.45-28.94-8.7-37.2-6-5.99-14.1-8.09-20.7-8.09-5.1 0-12 0.59-18.75 6.15-7.35 6-11.7 15.15-11.7 36.9v20.99c0 22.8 0 27 0.3 31.81 0.3 5.24 1.5 7.79 5.55 8.54 1.8 0.31 2.7 0.45 4.35 0.45 1.5 0 2.4 0.31 2.4 1.35 0 1.06-1.05 1.36-3.3 1.36-5.4 0-14.85-0.45-18.45-0.45-4.49 0-13.95 0.45-21.9 0.45-2.25 0-3.3-0.3-3.3-1.36 0-1.04 0.91-1.35 2.56-1.35zm-104.86-71.39h-25.5c-0.44 0-0.75 0.3-0.44 0.89l12.74 31.8c0.15 0.45 0.3 1.2 0.75 1.2 0.3 0 0.45-0.75 0.6-1.2l12.45-31.94c0.15-0.45 0-0.75-0.6-0.75zm44.7-36.61c-1.5 0-3 0.16-4.95 0.45-2.4 0.46-6.15 2.11-11.25 13.66-8.4 19.35-30.45 70.94-33.6 77.99-1.35 2.86-1.95 4.06-3.9 4.06-1.35 0-2.4-1.51-3.9-5.1l-34.49-79.65c-2.71-6.45-4.96-10.35-10.96-11.25-1.19 0-2.7-0.16-3.89-0.16-1.05 0-1.51-0.59-1.51-1.34 0-1.05 0.75-1.35 2.4-1.35 6.9 0 13.96 0.45 15.3 0.45 4.2 0 10.35-0.45 14.7-0.45 1.35 0 2.1 0.3 2.1 1.35 0 0.75-0.3 1.34-1.95 1.34h-1.95c-4.04 0-5.25 1.36-5.25 3.61 0 1.5 0.6 4.65 1.95 7.8l7.05 17.25c0.31 0.75 0.45 0.9 1.2 0.9h31.05c0.6 0 1.05-0.15 1.35-0.9l10.2-25.8c0.6-1.5-0.3-2.7-1.2-2.86-1.35-0.14-1.65-0.59-1.65-1.34 0-0.9 1.5-0.9 3.9-1.05 11.1-0.3 20.7-0.3 25.35-0.3 4.95 0 5.7 0.3 5.7 1.35 0 0.9-0.6 1.34-1.8 1.34zm-156.6 91.21c1.65 0 3.3-0.15 4.8-0.61 2.85-0.9 4.2-2.39 4.5-6.75 0.16-4.04 0.16-7.64 0.16-26.99v-22.5c0-12.3 0-22.5-0.6-27.75-0.46-3.75-1.21-5.55-3.91-6.16-1.2-0.29-2.7-0.45-4.64-0.45-1.65 0-2.1-0.74-2.1-1.34 0-0.9 0.89-1.35 2.55-1.35 5.24 0 14.24 0.45 17.24 0.45 3.6 0 12.6-0.45 21.3-0.45 1.5 0 2.55 0.45 2.55 1.35 0 0.6-0.6 1.34-2.1 1.34-1.95 0-4.95 0.16-6.75 0.45-3.9 0.61-4.8 2.56-5.25 6.01-0.6 5.4-0.6 15.6-0.6 27.9v22.5c0 19.35 0 22.95 0.3 26.99 0.3 4.5 1.35 6.3 4.95 6.91 1.5 0.3 2.55 0.45 3.9 0.45s2.1 0.3 2.1 1.49c0 0.75-1.05 1.05-2.7 1.05-5.1 0-13.65-0.3-16.95-0.3-3.75 0-12.75 0.3-17.7 0.3-2.1 0-3.15-0.3-3.15-1.05 0-1.19 0.76-1.49 2.1-1.49zm-56.85-88.05c-3 0-6 0.15-9.45 1.5-4.2 1.64-4.65 4.2-4.65 12.6v28.95c0 0.75 0.3 0.89 0.75 0.89h5.7c5.1 0 8.7-1.34 11.4-3.3 9.9-6.74 12.45-16.79 12.45-22.64 0-14.1-9.15-18-16.2-18zm-14.1 82.34c0 1.35 0.3 1.96 1.2 2.1 1.35 0.31 3.9 0.31 5.7 0.31 11.4 0 16.5-10.66 16.5-19.2 0-6.16-2.55-10.8-6-13.5-2.25-1.81-6-2.26-10.35-2.26-3 0-4.95 0.16-6.15 0.45-0.45 0.16-0.9 0.31-0.9 1.36zm23.4-33.14c7.49 4.79 14.85 12.45 14.85 22.34 0 6.76-4.2 19.05-28.05 19.05-4.5 0-13.2-0.3-19.8-0.3-2.55 0-10.95 0.3-17.85 0.3-1.95 0-3-0.3-3-1.2 0-0.89 0.9-1.34 2.25-1.34 1.95 0 4.2-0.15 5.25-0.45 4.2-1.2 5.4-2.55 5.7-6.91 0.15-4.04 0.15-7.64 0.15-26.99v-22.5c0-11.7 0-21.75-0.6-27.15-0.45-3.75-1.2-6.15-3.9-6.76-1.2-0.29-2.7-0.45-4.65-0.45-1.65 0-2.1-0.74-2.1-1.34 0-0.9 0.9-1.35 2.55-1.35 2.7 0 6 0.15 9.15 0.3 3.15 0 6 0.15 7.5 0.15 2.1 0 6.75-0.15 11.25-0.3 4.5-0.3 9-0.45 10.5-0.45 24.3 0 35.1 14.1 35.1 27.75 0 15-13.5 24.15-24.3 27.6zm-69.61-53.85c0 0.75-0.89 1.2-2.09 1.2-1.66 0-3.75 0.15-7.5 1.2-4.05 1.19-5.25 4.65-6.45 12.6l-12 78.45c-0.45 2.69-1.95 4.04-3 4.04-1.2 0-2.4-1.04-3.45-3.14l-35.4-71.4-35.4 70.5c-1.8 3.45-2.7 4.04-4.05 4.04-1.05 0-2.25-1.19-2.55-3.3l-13.05-82.65c-0.6-4.2-1.8-9.29-5.4-9.74-2.1-0.31-3-0.31-4.05-0.31-1.35 0-2.1-0.59-2.1-1.19 0-1.2 1.05-1.5 2.4-1.5 4.2 0 10.5 0.45 13.05 0.45 2.4 0 8.4-0.45 13.95-0.45 1.95 0 3.15 0.3 3.15 1.5 0 0.6-0.9 1.19-2.1 1.19s-2.4 0.16-4.65 0.61-4.05 1.35-4.05 3.75c0 2.1 0.15 3.75 0.45 6l6.3 49.2h0.45c4.35-8.85 12.15-24.3 13.2-26.7 1.5-3.61 12-23.1 15.15-28.95 2.1-3.91 3.6-6.45 5.25-6.45 1.5 0 2.25 1.2 5.25 7.2l28.35 56.4h0.45l7.35-55.05c0.45-3.6 0.15-5.1-0.6-5.4-0.9-0.3-1.5-0.75-1.5-1.35 0-0.75 0.75-1.35 3.9-1.5 5.25-0.3 24-0.75 27.3-0.75 1.95 0 3.44 0.45 3.44 1.5zm-252.59 92.7c1.8 0 4.05-0.15 5.1-0.45 4.2-1.2 5.4-2.41 5.7-6.91 0.3-4.04 0.15-7.64 0.15-26.99v-18.75c0-18.46 5.25-27.9 12-33.75 9.6-8.4 23.25-8.7 30.15-8.7 8.55 0 18.6 1.35 27.9 9.15 11.1 9.15 12.6 24.15 12.6 38.4v13.65c0 19.35 0.15 22.95 0.3 26.99 0.3 4.5 1.19 6.3 4.8 6.91 1.65 0.3 2.4 0.45 3.89 0.45 1.51 0 2.26 0.45 2.26 1.34 0 0.9-0.9 1.2-2.7 1.2-5.1 0-13.95-0.3-15.45-0.3-0.15 0-9 0.3-15.75 0.3-1.8 0-2.7-0.3-2.7-1.2 0-0.89 0.75-1.34 2.25-1.34s3.75-0.15 4.8-0.45c4.2-1.2 5.25-2.55 5.55-6.91 0.15-4.04 0.3-7.64 0.3-26.99v-16.05c0-13.05-0.3-24.15-7.65-31.05-5.25-5.1-12-6.75-17.7-6.75-4.5 0-10.8 0.45-16.65 5.1-6.45 5.1-10.05 12.3-10.05 30.9v17.85c0 19.35 0 22.95 0.3 26.99 0.3 4.5 1.35 6.3 4.8 6.91 1.65 0.3 2.4 0.45 3.9 0.45 1.35 0 2.1 0.45 2.1 1.34 0 0.9-0.9 1.2-2.85 1.2-4.8 0-13.65-0.3-16.95-0.3-3.9 0-12.75 0.3-19.8 0.3-1.95 0-2.85-0.3-2.85-1.2 0-0.89 0.75-1.34 2.25-1.34zm-80.85 0c1.65 0 3.3-0.15 4.35-0.45 4.2-1.2 5.4-2.55 5.7-6.91 0.15-4.04 0.15-7.64 0.15-26.99v-22.5c0-11.7 0-21.75-0.6-27.15-0.45-3.75-1.2-6.15-3.9-6.76-1.2-0.29-2.7-0.45-4.65-0.45-1.65 0-2.1-0.74-2.1-1.34 0-0.9 0.9-1.35 2.55-1.35 2.7 0 6 0.15 9.15 0.3 3.15 0 6 0.15 7.5 0.15 5.4 0 10.95-0.15 17.55-0.3 6.6-0.3 14.25-0.45 23.7-0.45 6.9 0 7.5 0.6 8.4 3.44 1.05 3.75 1.95 13.21 1.95 14.71s-0.3 2.85-1.2 2.85c-1.05 0-1.35-0.75-1.5-1.95-0.3-2.4-1.65-6.01-3.3-7.65-3.3-3.45-8.4-3.6-15.45-3.6-10.2 0-15.3 0.75-17.55 2.69-2.85 2.41-2.85 10.51-2.85 26.86v22.5c0 19.35 0 22.95 0.3 26.99 0.3 4.5 1.35 6.3 4.95 6.91 1.5 0.3 3.6 0.45 5.1 0.45 1.65 0 2.4 0.45 2.4 1.34 0 0.9-0.9 1.2-2.85 1.2-5.1 0-15.9-0.3-19.05-0.3-3.6 0-12 0.3-18.15 0.3-1.95 0-2.85-0.3-2.85-1.2 0-0.89 0.75-1.34 2.25-1.34zm-79.8-2.41c21.3 0 38.25-17.4 38.25-45.59 0-36.3-21-40.65-30.3-40.65-24.9 0-39.9 20.7-39.9 46.95 0 31.49 17.26 39.29 31.95 39.29zm2.55-93.14c34.05 0 55.35 22.95 55.35 52.2 0 29.24-20.7 47.69-54 47.69-40.04 0-55.34-28.19-55.34-49.94 0-22.66 15.59-49.95 53.99-49.95zm-161.84 15.9c13.64-11.85 30.89-16.35 51.44-16.35 9.6 0 21 1.04 27 3.45 2.55 1.05 3.15 1.79 3.9 4.35 1.5 5.1 3.3 18.15 3.3 19.94 0 1.21-0.3 2.26-1.35 2.26-1.2 0-1.5-0.61-1.95-3-0.6-2.7-2.55-7.05-5.1-9.9-6-6.9-14.1-8.4-27.45-8.4-20.1 0-47.25 17.7-47.25 53.4 0 14.55 2.86 28.8 13.8 38.85 6.61 5.99 15.15 9.29 28.2 9.29 13.8 0 25.5-4.05 30.45-9.29 3.75-3.91 5.7-9.15 5.85-13.8 0-2.1 0.3-3.3 1.5-3.3 1.35 0 1.65 1.2 1.8 3.44 0.3 3 0.15 11.25 0.45 16.21 0.3 5.24 0.75 7.05 0.75 8.25 0 0.9-0.6 1.65-2.25 1.79-4.5 0.45-9.3 1.8-15 2.55-6.9 0.9-12.45 1.51-21.75 1.51-22.35 0-36.6-6.01-47.39-15.9-14.4-13.2-17.55-30.9-17.55-41.1 0-14.56 3.89-31.35 18.6-44.25"/>
    <path d="m2466.7 2266.7 0.02-756h11.95v756h-11.97"/>
    <path d="m379.54 1880.4c-20.25-34.88-40.055-68.55-64.828-68.55-7.105 0-19.691 6.73-14.816 25.28l23.359 23.59c1.598 1.78 2.809 3.87 1.676 6.54l-14.789 31.23c-0.84 1.85-2.481 1.76-4.25 0l-31.254-31.24c-1.676-1.7-2.418-4.07-1.332-6.6l9.883-23.11c-3.817-15.24-13.743-26.37-25.793-25.54-22.387 1.49-40.563 44.05-13.61 104.13 4.539 10.08 6.246 18.57 5.774 25.91 51.093 23.28 116.84 48.26 141.86 16.65 15.012-18.92 8.016-43.99-11.879-78.29zm-216.95-68.4c-12.031-0.83-21.973 10.3-25.785 25.54l9.851 23.11c1.114 2.53 0.364 4.9-1.293 6.6l-31.273 31.24c-1.777 1.76-3.391 1.85-4.242 0l-14.805-31.23c-1.1289-2.67 0.1093-4.76 1.6836-6.54l23.359-23.59c4.863-18.55-7.711-25.28-14.816-25.28-24.774 0-44.578 33.67-64.813 68.55-19.902 34.3-26.894 59.37-11.898 78.29 25.027 31.61 90.769 6.63 141.85-16.65-0.476-7.34 1.246-15.83 5.774-25.91 26.98-60.08 8.789-102.64-13.594-104.13zm83.57 153.99c-3.73-1.19-7.578-0.11-10.949 2.6-2.894 2.41-5.961 4.46-8.969 6.24 9.336 5.53 15.625 15.72 15.625 27.35 0 15.93-11.668 29.08-26.933 31.48l11.715 15.1c1.152 1.51 1.152 3.95 0 5.44l-14.547 18.77c-0.567 0.76-1.324 1.08-2.114 1.08-0.757 0-1.531-0.32-2.125-1.08l-14.507-18.77c-1.176-1.49-1.176-3.93 0-5.44l11.683-15.12c-15.254-2.39-26.922-15.53-26.922-31.46 0-11.63 6.282-21.82 15.649-27.35-3.028-1.78-6.082-3.83-8.988-6.24-3.368-2.71-7.211-3.79-10.95-2.6-66.265 21.19-124.79 41.6-158.04 9.01-39.82-39.08 6.5234-102.23 21.121-128.22 10.223-18.25 17.492-39.48 17.492-56.35h311.19c0 16.87 7.25 38.1 17.469 56.35 14.597 25.99 60.957 89.14 21.121 128.22-33.254 32.59-91.738 12.18-158.02-9.01zm-191.73-223.31h311.15v25.61h-311.15zm2158.9 84.48h-50.04c-1.08 0-1.36 0.83-1.08 1.91l25.02 66.92c0.27 1.06 0.8 2.44 1.62 2.44s1.08-1.38 1.38-2.44l24.48-67.2c0.25-0.8 0-1.63-1.38-1.63zm91.93-79.7c-3.26 0-7.34 0.29-11.42 1.11-5.71 1.34-13.6 5.16-23.95 29.64-17.4 41.34-60.91 152.3-67.44 167.26-2.7 6.25-4.34 8.71-6.78 8.71-2.72 0-4.36-3-7.64-10.89l-68.26-170.8c-5.42-13.58-10.6-22.83-23.11-24.45-2.16-0.29-5.96-0.58-8.43-0.58-2.19 0-3.27-0.52-3.27-2.16 0-2.17 1.65-2.73 5.18-2.73 14.14 0 29.11 0.83 32.08 0.83 8.45 0 20.14-0.83 28.84-0.83 2.99 0 4.62 0.56 4.62 2.73 0 1.64-0.82 2.16-4.09 2.16h-4.07c-8.44 0-10.89 3.56-10.89 8.46 0 3.25 1.37 9.77 4.1 16.57l14.69 38.9c0.52 1.63 1.08 2.16 2.43 2.16h60.66c1.35 0 2.17-0.53 2.71-1.88l21.77-57.67c1.36-3.25-0.54-5.71-2.47-6.25-2.7-0.29-3.79-0.81-3.79-2.45 0-1.9 3.24-1.9 8.15-2.17 21.76-0.56 41.64-0.56 51.39-0.56 10.09 0 12.52 0.56 12.52 2.73 0 1.91-1.36 2.16-3.53 2.16zm-556.36 0c-3.53 0-8.98 0.29-16.87 2.75-8.14 2.44-10.87 10.33-13.33 27.47l-24.75 168.04c-0.8 5.73-2.43 8.46-4.9 8.46-2.43 0-4.07-2.18-5.97-6.53l-73.98-155.29-74.23 153.36c-3.54 7.1-5.17 8.46-7.35 8.46-2.17 0-3.82-2.46-4.62-7.08l-26.92-177.33c-1.37-9.23-3.53-19.86-11.17-21.48-4.05-0.83-5.96-0.83-8.14-0.83-2.73 0-4.36-0.52-4.36-1.88 0-2.45 2.18-3.01 4.9-3.01 8.7 0 21.76 0.86 26.92 0.86 4.9 0 17.14-0.86 28.56-0.86 4.08 0 6.52 0.56 6.52 3.01 0 1.36-1.9 1.88-4.07 1.88-2.73 0-6.52 0.29-11.44 1.38-4.62 1.07-8.15 3.53-8.15 8.71 0 4.34 0.28 7.88 0.83 12.77l14.13 108.23h1.08c9.52-20.37 25.85-54.65 28.3-60.36 3.25-7.61 24.76-49.24 31.26-61.73 4.36-8.17 7.09-13.6 9.52-13.6 2.46 0 3.81 2.44 10.07 15.23l59.3 123.48h1.07l16.34-119.68c1.08-7.59 0.26-11.14-1.37-11.68-1.9-0.8-3-1.64-3-3 0-1.63 1.64-2.44 7.9-3 10.86-0.81 48.4-1.64 55.21-1.64 3.81 0 7.06 0.83 7.06 3.01 0 1.63-1.91 1.88-4.35 1.88zm119.88 6.54c-6.25 0-12.5 0.3-19.84 3.27-8.7 3.53-9.52 8.16-9.52 26.1v64.45c0 1.36 0.54 1.91 1.63 1.91 4.08 0 6.81 0 11.7-0.26 10.6-0.54 16.86-2.44 22.57-6.54 20.67-14.4 26.37-37.26 26.37-54.1 0-28.29-20.67-34.83-32.91-34.83zm-29.36 177.88c0 2.99 0.54 4.06 2.45 4.62 2.71 0.54 5.16 0.54 8.95 0.54 23.41 0 34.03-23.92 34.03-42.16 0-13.31-4.09-23.12-11.16-28.83-4.62-4.08-10.62-5.17-19.59-5.17-6.24 0-10.33 0.29-12.78 0.83-1.08 0.26-1.9 0.81-1.9 3zm46.23-72.08c14.96 11.96 27.75 25.3 27.75 47.57 0 14.44-8.71 40.81-57.94 40.81-9.25 0-19.85-0.79-33.18-0.79-5.44 0-22.57 0.79-36.97 0.79-4.09 0-6.01-0.53-6.01-2.46 0-1.87 1.64-2.43 4.63-2.43 3.8 0 8.44-0.26 10.6-0.79 8.98-1.92 11.17-6.28 11.71-15.52 0.55-8.73 0.55-16.32 0.55-57.66v-47.88c0-25.02 0-46.52-1.37-57.91-1.09-7.9-2.45-13.87-7.87-14.96-2.47-0.53-5.73-1.11-9.82-1.11-3.25 0-4.36-0.79-4.36-2.16 0-1.9 1.94-2.73 5.45-2.73 10.89 0 28.02 0.83 34.28 0.83 8.15 0 32.9-1.63 39.43-1.63 50.05 0 72.61 30.17 72.61 59.31 0 31.81-27.19 51.1-49.49 58.72zm-673.03-74.78c-2.17 0-2.69-1.65-2.99-4.08-0.54-5.19-3.79-12.78-7.05-16.33-6.8-7.34-17.43-7.6-31.84-7.6-21.21 0-28.26 1.9-32.9 5.99-5.72 4.87-5.72 23.63-5.72 58.46v47.86c0 41.34 0 48.95 0.56 57.66 0.54 9.52 2.71 14.15 10.05 15.5 3.26 0.53 7.62 0.79 10.6 0.79 3.28 0 4.91 0.58 4.91 2.45 0 1.93-1.91 2.46-5.72 2.46-10.61 0-30.46-0.85-36.98-0.85-7.34 0-24.49 0.85-37.26 0.85-4.09 0-5.98-0.53-5.98-2.46 0-1.87 1.62-2.45 4.61-2.45 3.53 0 6.79-0.26 8.98-0.79 8.97-1.88 11.16-6.26 11.7-15.5 0.55-8.71 0.55-16.32 0.55-57.66v-47.86c0-25.04 0-46.54-1.37-57.93-1.09-7.88-2.45-13.87-7.89-14.96-2.45-0.53-5.72-1.11-9.78-1.11-3.27 0-4.36-0.79-4.36-2.16 0-1.88 1.91-2.73 5.45-2.73 10.86 0 28.01 0.85 34.27 0.85 22.03 0 39.96-1.65 79.13-1.65 14.14 0 15.5 1.36 17.13 7.34 2.18 7.9 4.08 28.3 4.08 31.28 0 3.27-0.26 4.63-2.18 4.63zm845.6-37.56c-4.08 0-10.05 0.58-13.87 1.11-8.15 1.09-10.05 5.97-10.88 13.34-1.1 11.68-1.1 33.17-1.1 59.55v47.86c0 41.34 0 48.95 0.54 57.64 0.56 9.54 2.73 14.17 10.08 15.54 3.26 0.53 5.42 0.79 8.16 0.79 2.72 0 4.34 0.56 4.34 2.74 0 1.62-2.16 2.15-5.71 2.15-10.33 0-26.39-0.8-33.17-0.8-7.91 0-25.02 0.8-35.38 0.8-4.33 0-6.52-0.53-6.52-2.15 0-2.18 1.65-2.74 4.36-2.74 3.27 0 6.81-0.26 9.79-1.09 5.99-1.37 8.7-5.98 9.26-15.24 0.54-8.69 0.54-16.3 0.54-57.64v-47.86c0-26.38 0-47.87-1.37-59.3-0.81-7.88-2.44-12.5-7.88-13.59-2.45-0.53-5.73-1.11-9.78-1.11-3.27 0-4.35-0.79-4.35-2.16 0-1.88 1.88-2.73 5.44-2.73 10.87 0 27.98 0.85 34.25 0.85 7.34 0 24.48-0.85 42.45-0.85 2.97 0 5.16 0.85 5.16 2.73 0 1.37-1.37 2.16-4.36 2.16zm-606.33 200.72c-10.61 0-27.76-0.8-31-0.8-0.28 0-17.41 0.8-31.28 0.8-3.82 0-5.7-0.53-5.7-2.46 0-1.87 1.62-2.43 4.6-2.43 3.01 0 7.62-0.26 9.81-0.79 8.97-1.9 11.14-6.28 11.68-15.54 0.54-8.69 0.54-16.3 0.54-57.64v-34c0-28.02-0.81-52.5-15.78-67.43-10.85-10.88-25.55-14.71-37.51-14.71-9.25 0-21.76 1.1-34.01 11.19-13.3 10.84-21.21 27.45-21.21 66.87v38.08c0 41.34 0 48.95 0.54 57.64 0.56 9.54 2.73 14.17 10.08 15.54 3.26 0.53 4.89 0.79 7.89 0.79 2.7 0 4.33 0.56 4.33 2.43 0 1.93-1.9 2.46-5.98 2.46-9.78 0-26.91-0.8-33.44-0.8-8.18 0-25.3 0.8-39.71 0.8-4.08 0-5.99-0.53-5.99-2.46 0-1.87 1.65-2.43 4.62-2.43 3.81 0 8.46-0.26 10.62-0.79 8.97-1.9 11.15-6.28 11.68-15.54 0.55-8.69 0.55-16.3 0.55-57.64v-39.7c0-39.43 10.35-59.57 24.22-72.07 19.84-17.97 45.94-18.77 60.37-18.77 17.67 0 37.26 2.99 56.57 19.57 22.84 19.59 25.84 51.67 25.84 81.86v29.11c0 41.34 0 48.95 0.53 57.64 0.56 9.54 2.72 14.17 10.07 15.54 3.26 0.53 4.89 0.79 7.89 0.79 3.26 0 4.89 0.56 4.89 2.43 0 1.93-1.91 2.46-5.71 2.46zm-518.36-195.81c-52.211 0-83.492 44.9-83.492 101.43 0 67.73 35.617 85.14 66.91 85.14 44.601 0 79.703-37.81 79.703-98.73 0-78.58-44.082-87.84-63.121-87.84zm-8.692 199.64c-81.601 0-112.34-60.1-112.34-106.62 0-48.12 31.539-106.61 109.61-106.61 69.078 0 112.6 49.24 112.6 111.5 0 62.28-42.16 101.73-109.87 101.73zm-156.21-149.12c-2.601 0-3.261-1.3-4.234-6.52-1.289-5.83-5.516-15.28-11.039-21.43-13.02-14.96-30.566-18.22-59.504-18.22-43.551 0-102.39 38.36-102.39 115.71 0 31.53 6.184 62.41 29.922 84.18 14.285 13.02 32.836 20.19 61.098 20.19 29.894 0 55.25-8.79 65.988-20.19 8.141-8.43 12.363-19.81 12.676-29.87 0-4.56 0.652-7.17 3.246-7.17 2.93 0 3.57 2.61 3.902 7.47 0.653 6.51 0.332 24.39 0.985 35.12 0.636 11.38 1.629 15.28 1.629 17.87 0 1.93-1.317 3.56-4.883 3.92-9.762 0.96-20.153 3.89-32.512 5.51-14.957 1.95-26.988 3.23-47.137 3.23-48.433 0-79.312-12.99-102.7-34.43-31.219-28.6-38.07-66.95-38.07-89.07 0-31.53 8.48-67.94 40.34-95.88 29.582-25.69 66.976-35.42 111.5-35.42 20.808 0 45.504 2.25 58.488 7.47 5.535 2.26 6.859 3.88 8.461 9.41 3.262 11.06 7.168 39.34 7.168 43.25 0 2.58-0.652 4.87-2.934 4.87"/>
   </g>
  </g>
 </g>
</svg>
