<svg width="119mm" height="15mm" version="1.1" viewBox="0 0 119 15" xmlns="http://www.w3.org/2000/svg">
 <ellipse cx="10.225" cy="7.4995" rx="10" ry="7.5" fill="#80b3ff" stroke-width=".29021" style="white-space:pre"/>
 <path transform="scale(.26458)" d="m23.771 2.3047a37.795 28.346 0 0 0-22.922 26.041 37.795 28.346 0 0 0 22.91 26.039 30.236 30.236 0 0 0 14.887-26.039 30.236 30.236 0 0 0-14.875-26.041z" fill="#fff" style="white-space:pre"/>
 <g stroke-width=".26458">
  <path d="m28.009 3.9434q1.1747 0 2.0531 0.46566 0.87841 0.46566 1.3546 1.3123 0.48683 0.83607 0.48683 1.9367 0 1.0901-0.48683 1.9367-0.47624 0.84666-1.3652 1.3123-0.8784 0.46566-2.0426 0.46566h-2.7834v-7.4294zm-0.11642 5.8631q1.0266 0 1.5981-0.56091 0.57149-0.56091 0.57149-1.5875t-0.57149-1.5981q-0.57149-0.57149-1.5981-0.57149h-0.85724v4.3179z" style="white-space:pre"/>
  <path d="m32.559 8.4084q0-0.91016 0.33866-1.5981 0.34925-0.68791 0.9419-1.0583t1.3229-0.37041q0.62441 0 1.0901 0.254 0.47624 0.254 0.73024 0.66674v-0.83607h1.8097v5.9054h-1.8097v-0.83607q-0.26458 0.41274-0.74082 0.66674-0.46566 0.254-1.0901 0.254-0.71966 0-1.3123-0.37041-0.59266-0.381-0.9419-1.0689-0.33866-0.69849-0.33866-1.6086zm4.4238 0.010583q0-0.67732-0.381-1.0689-0.37041-0.39158-0.91016-0.39158t-0.92074 0.39158q-0.37041 0.381-0.37041 1.0583t0.37041 1.0795q0.381 0.39158 0.92074 0.39158t0.91016-0.39158q0.381-0.39158 0.381-1.0689z" style="white-space:pre"/>
  <path d="m41.916 3.5412v7.8316h-1.8097v-7.8316z" style="white-space:pre"/>
  <path d="m45.038 3.5412v7.8316h-1.8097v-7.8316z" style="white-space:pre"/>
  <path d="m45.99 8.4084q0-0.91016 0.33866-1.5981 0.34924-0.68791 0.9419-1.0583 0.59266-0.37041 1.3229-0.37041 0.62441 0 1.0901 0.254 0.47624 0.254 0.73024 0.66674v-0.83607h1.8097v5.9054h-1.8097v-0.83607q-0.26458 0.41274-0.74082 0.66674-0.46566 0.254-1.0901 0.254-0.71966 0-1.3123-0.37041-0.59266-0.381-0.9419-1.0689-0.33866-0.69849-0.33866-1.6086zm4.4238 0.010583q0-0.67732-0.381-1.0689-0.37041-0.39158-0.91016-0.39158-0.53974 0-0.92074 0.39158-0.37041 0.381-0.37041 1.0583t0.37041 1.0795q0.381 0.39158 0.92074 0.39158 0.53974 0 0.91016-0.39158 0.381-0.39158 0.381-1.0689z" style="white-space:pre"/>
  <path d="m58.087 6.9056v1.5028h-4.6566v-1.5028z" style="white-space:pre"/>
  <path d="m64.511 3.9434v1.4499h-3.0268v1.5663h2.2648v1.4076h-2.2648v3.0056h-1.8097v-7.4294z" style="white-space:pre"/>
  <path d="m65.104 8.4084q0-0.91016 0.33866-1.5981 0.34924-0.68791 0.9419-1.0583 0.59266-0.37041 1.3229-0.37041 0.62441 0 1.0901 0.254 0.47624 0.254 0.73024 0.66674v-0.83607h1.8097v5.9054h-1.8097v-0.83607q-0.26458 0.41274-0.74082 0.66674-0.46566 0.254-1.0901 0.254-0.71966 0-1.3123-0.37041-0.59266-0.381-0.9419-1.0689-0.33866-0.69849-0.33866-1.6086zm4.4238 0.010583q0-0.67732-0.381-1.0689-0.37041-0.39158-0.91016-0.39158-0.53974 0-0.92074 0.39158-0.37041 0.381-0.37041 1.0583t0.37041 1.0795q0.381 0.39158 0.92074 0.39158 0.53974 0 0.91016-0.39158 0.381-0.39158 0.381-1.0689z" style="white-space:pre"/>
  <path d="m75.306 9.6784 1.2806-4.2121h1.9261l-2.0955 5.9054h-2.2331l-2.0955-5.9054h1.9367z" style="white-space:pre"/>
  <path d="m84.841 8.3238q0 0.254-0.03175 0.52916h-4.0957q0.04233 0.55033 0.34925 0.84666 0.3175 0.28575 0.77257 0.28575 0.67732 0 0.9419-0.57149h1.9261q-0.14816 0.58208-0.53974 1.0477-0.381 0.46566-0.96307 0.73024t-1.3017 0.26458q-0.86782 0-1.5451-0.37041-0.67732-0.37041-1.0583-1.0583-0.381-0.68791-0.381-1.6086t0.37041-1.6086q0.381-0.68791 1.0583-1.0583 0.67732-0.37041 1.5557-0.37041 0.85724 0 1.524 0.35983 0.66674 0.35983 1.0372 1.0266 0.381 0.66674 0.381 1.5557zm-1.8521-0.47624q0-0.46566-0.3175-0.74082t-0.79374-0.27516q-0.45508 0-0.77257 0.26458-0.30691 0.26458-0.381 0.75141z" style="white-space:pre"/>
  <path d="m87.603 6.4505q0.3175-0.48683 0.79374-0.76199 0.47624-0.28575 1.0583-0.28575v1.9156h-0.49741q-0.67732 0-1.016 0.29633-0.33866 0.28575-0.33866 1.016v2.741h-1.8097v-5.9054h1.8097z" style="white-space:pre"/>
  <path d="m89.963 8.4084q0-0.91016 0.33866-1.5981 0.34924-0.68791 0.9419-1.0583 0.59266-0.37041 1.3229-0.37041 0.62441 0 1.0901 0.254 0.47624 0.254 0.73024 0.66674v-0.83607h1.8097v5.9054h-1.8097v-0.83607q-0.26458 0.41274-0.74082 0.66674-0.46566 0.254-1.0901 0.254-0.71966 0-1.3123-0.37041-0.59266-0.381-0.9419-1.0689-0.33866-0.69849-0.33866-1.6086zm4.4238 0.010583q0-0.67732-0.381-1.0689-0.37041-0.39158-0.91016-0.39158-0.53974 0-0.92074 0.39158-0.37041 0.381-0.37041 1.0583t0.37041 1.0795q0.381 0.39158 0.92074 0.39158 0.53974 0 0.91016-0.39158 0.381-0.39158 0.381-1.0689z" style="white-space:pre"/>
  <path d="m101.27 10.768h2.6564v0.60324h-3.3972v-7.3977h0.74082z" style="white-space:pre"/>
  <path d="m104.64 8.4719q0-0.88899 0.34925-1.5557 0.35983-0.67732 0.98424-1.0372 0.63499-0.37041 1.4287-0.37041 0.82549 0 1.4182 0.381 0.60324 0.381 0.86782 0.97365v-1.27h0.74082v5.7784h-0.74082v-1.2806q-0.27516 0.59266-0.87841 0.98424-0.59265 0.381-1.4181 0.381-0.78316 0-1.4182-0.37041-0.62441-0.37041-0.98424-1.0477-0.34925-0.67732-0.34925-1.5663zm5.0482 0.010583q0-0.69849-0.28575-1.2277-0.28574-0.52916-0.78315-0.81491-0.48683-0.28575-1.0795-0.28575-0.61383 0-1.1006 0.27516-0.48683 0.27516-0.77258 0.80432-0.27516 0.51858-0.27516 1.2382 0 0.70907 0.27516 1.2488 0.28575 0.52916 0.77258 0.81491 0.48682 0.27516 1.1006 0.27516 0.59266 0 1.0795-0.28575 0.49741-0.28575 0.78315-0.81491 0.28575-0.52916 0.28575-1.2277z" style="white-space:pre"/>
  <path d="m112.85 6.8739q0.28574-0.60324 0.8784-0.98424 0.60324-0.381 1.4182-0.381 0.79374 0 1.4182 0.37041 0.62441 0.35983 0.97365 1.0372 0.35983 0.66674 0.35983 1.5557t-0.35983 1.5663q-0.34924 0.67732-0.98423 1.0477-0.62441 0.37041-1.4076 0.37041-0.82549 0-1.4287-0.37041-0.59266-0.381-0.86782-0.98424v1.27h-0.73024v-7.8316h0.73024zm4.2968 1.5981q0-0.71966-0.28575-1.2382-0.27516-0.52916-0.76199-0.80432t-1.1006-0.27516q-0.59266 0-1.0901 0.28575-0.48683 0.28575-0.77258 0.81491-0.28574 0.52916-0.28574 1.2277t0.28574 1.2277q0.28575 0.52916 0.77258 0.81491 0.49741 0.28575 1.0901 0.28575 0.61382 0 1.1006-0.27516 0.48683-0.28575 0.76199-0.81491 0.28575-0.53974 0.28575-1.2488z" style="white-space:pre"/>
 </g>
 <path d="m5.3694 0.94569a10 7.5 0 0 0-5.1444 6.5546 10 7.5 0 0 0 5.1408 6.5531 7.5 7.5 0 0 0 3.8592-6.5531 7.5 7.5 0 0 0-3.8556-6.5546z" fill="#2a7fff" stroke-linecap="round" stroke-linejoin="round" stroke-opacity=".5" stroke-width=".21284"/>
</svg>
