<?xml version="1.0" encoding="UTF-8" standalone="no"?>
<svg
   id="Layer_1"
   data-name="Layer 1"
   viewBox="0 0 246.00001 68.999997"
   version="1.1"
   sodipodi:docname="pubmed-logo-white.svg"
   width="246"
   height="69"
   inkscape:version="1.1.2 (0a00cf5339, 2022-02-04)"
   xmlns:inkscape="http://www.inkscape.org/namespaces/inkscape"
   xmlns:sodipodi="http://sodipodi.sourceforge.net/DTD/sodipodi-0.dtd"
   xmlns="http://www.w3.org/2000/svg"
   xmlns:svg="http://www.w3.org/2000/svg"
   xmlns:rdf="http://www.w3.org/1999/02/22-rdf-syntax-ns#"
   xmlns:cc="http://creativecommons.org/ns#"
   xmlns:dc="http://purl.org/dc/elements/1.1/">
  <sodipodi:namedview
     id="namedview33"
     pagecolor="#ffffff"
     bordercolor="#666666"
     borderopacity="1.0"
     inkscape:pageshadow="2"
     inkscape:pageopacity="0.0"
     inkscape:pagecheckerboard="0"
     showgrid="false"
     fit-margin-top="0"
     fit-margin-left="0"
     fit-margin-right="0"
     fit-margin-bottom="0"
     height="69px"
     inkscape:zoom="2.3641482"
     inkscape:cx="41.452562"
     inkscape:cy="41.029576"
     inkscape:window-width="1920"
     inkscape:window-height="1009"
     inkscape:window-x="0"
     inkscape:window-y="0"
     inkscape:window-maximized="1"
     inkscape:current-layer="Layer_1" />
  <defs
     id="defs4">
    <style
       id="style2">.cls-1{fill:#d1d3d4;}.cls-2{fill:#e6e7e8;}.cls-3{fill:#fff;}</style>
  </defs>
  <title
     id="title6">PubMed-gov-white-2</title>
  <path
     class="cls-1"
     d="m 91.73,63.8 v 0 C 88.26,42.87 76.17,48.02 76.17,48.02 L 75.83,4.14 c 0,0 9.2,-3.16 16,18.11 v 0 z"
     id="path8" />
  <path
     class="cls-2"
     d="m 91.73,64.01 v 0 c -1,-25.76 -8,-24.16 -8,-24.16 L 82.91,0 c 0,0 7.88,4.06 9,20 v 0 z"
     id="path10" />
  <path
     class="cls-3"
     d="m 21.87,31.91 q 0,4.65 -2.79,6.92 -2.79,2.27 -8,2.28 H 7 V 54.36 H 0 V 22.73 h 11 a 12.57,12.57 0 0 1 7.93,2.28 q 2.95,2.27 2.94,6.9 z m -7,0.92 a 4.5,4.5 0 0 0 -1.26,-3.51 5.12,5.12 0 0 0 -3.56,-1.15 h -3 v 9.44 h 3.23 a 4.42,4.42 0 0 0 3.53,-1.29 5.15,5.15 0 0 0 1.06,-3.49 z"
     id="path12" />
  <path
     class="cls-3"
     d="m 45.8,54.36 h -6.31 v -2.53 l -2.61,1.48 a 10.68,10.68 0 0 1 -2.29,1 9.56,9.56 0 0 1 -2.57,0.34 6.68,6.68 0 0 1 -5.15,-2 7.58,7.58 0 0 1 -1.88,-5.36 v -15 h 6.31 v 13.57 a 3,3 0 0 0 0.86,2.13 3.46,3.46 0 0 0 2.65,0.93 5.39,5.39 0 0 0 2.85,-0.72 10.17,10.17 0 0 0 1.83,-1.31 v -14.6 h 6.31 z"
     id="path14" />
  <path
     class="cls-3"
     d="m 72.73,42.85 a 12,12 0 0 1 -3.11,8.44 10.19,10.19 0 0 1 -7.83,3.38 13.31,13.31 0 0 1 -3.44,-0.47 7.57,7.57 0 0 1 -2.57,-1.09 l -3.54,1.56 -1.51,-0.81 V 22.73 h 6.18 v 10.56 l 2.38,-1.14 a 15.06,15.06 0 0 1 1.57,-0.63 6.13,6.13 0 0 1 1.94,-0.29 8.82,8.82 0 0 1 7.29,3.29 12.86,12.86 0 0 1 2.64,8.33 z m -6.38,0.4 a 7.75,7.75 0 0 0 -1.5,-4.77 4.61,4.61 0 0 0 -3.83,-2 6.84,6.84 0 0 0 -2.57,0.47 2.93,2.93 0 0 0 -1.52,1.19 v 10.5 a 3.89,3.89 0 0 0 1.6,0.94 7.3,7.3 0 0 0 2.41,0.37 c 2,0 3.34,-0.53 4.18,-1.6 a 8.29,8.29 0 0 0 1.25,-5.1 z"
     id="path16" />
  <path
     class="cls-3"
     d="M 155.37,44.23 H 139 a 6,6 0 0 0 2.12,3.88 6.38,6.38 0 0 0 3.9,1.18 17.45,17.45 0 0 0 4.08,-0.53 10.91,10.91 0 0 0 3.52,-1.4 v 5.56 a 9.75,9.75 0 0 1 -3.64,1.37 20,20 0 0 1 -3.92,0.5 c -3.91,0 -6.95,-1.06 -9.15,-3.19 a 11.41,11.41 0 0 1 -3.29,-8.57 11.75,11.75 0 0 1 3.36,-8.73 11.48,11.48 0 0 1 8.4,-3.32 9.93,9.93 0 0 1 8,3.55 q 3.02,3.54 2.99,9.7 z m -5.81,-3 a 6.39,6.39 0 0 0 -1.89,-3.74 5.12,5.12 0 0 0 -3.52,-1.26 4.76,4.76 0 0 0 -3.7,1.37 6.27,6.27 0 0 0 -1.51,3.63 z"
     id="path18" />
  <path
     class="cls-3"
     d="m 179.47,54.36 h -4.81 l -1.31,-2 -3.32,1.78 a 3.56,3.56 0 0 1 -1.2,0.33 9.06,9.06 0 0 1 -1.36,0.12 8.76,8.76 0 0 1 -7.39,-3.28 13.13,13.13 0 0 1 -2.54,-8.21 11.68,11.68 0 0 1 3,-8.53 10.72,10.72 0 0 1 8.08,-3.17 12.73,12.73 0 0 1 2.54,0.23 7.1,7.1 0 0 1 2.1,0.8 v -9.72 h 6.18 z m -6.18,-6.82 v -9.78 a 4.22,4.22 0 0 0 -1.7,-1.08 7.21,7.21 0 0 0 -2.58,-0.45 4.71,4.71 0 0 0 -3.84,1.52 7.47,7.47 0 0 0 -1.26,4.81 7.87,7.87 0 0 0 1.34,5 4.43,4.43 0 0 0 3.63,1.66 6.14,6.14 0 0 0 2.59,-0.5 6,6 0 0 0 1.82,-1.18 z"
     id="path20" />
  <path
     class="cls-3"
     d="m 91.73,23.8 v 40 c 6,-25 38,5 38,5 v -43 c 0,0 -32,-27 -38,-2 z m 28.32,27.58 -3,-15 -5.46,12.92 h -2.76 l -4.93,-12.33 -3,14.45 h -5.8 l 6,-26.92 h 2.3 l 7.14,15.89 7.19,-15.93 h 2.49 l 6,26.92 z"
     id="path22" />
  <path
     class="cls-3"
     d="m 187.18,51.65 a 1.73,1.73 0 0 1 1.28,0.52 1.79,1.79 0 0 1 0,2.51 1.74,1.74 0 0 1 -1.27,0.52 1.78,1.78 0 1 1 0,-3.55 z"
     id="path24" />
  <path
     class="cls-3"
     d="m 211.95,39.98 -0.51,1.82 h -2.94 a 5.26,5.26 0 0 1 0.34,1.78 5.49,5.49 0 0 1 -2,4.13 8.47,8.47 0 0 1 -5.45,2 8.2,8.2 0 0 0 -2.8,1.34 0.78,0.78 0 0 0 -0.35,0.58 0.87,0.87 0 0 0 0.32,0.64 4,4 0 0 0 1.6,0.59 l 3.41,0.79 a 8.28,8.28 0 0 1 3.74,1.58 3,3 0 0 1 0.9,2.15 3.89,3.89 0 0 1 -1.06,2.64 7.06,7.06 0 0 1 -3.12,1.87 15.64,15.64 0 0 1 -8.49,0.16 5.43,5.43 0 0 1 -2.57,-1.4 2.71,2.71 0 0 1 -0.77,-1.81 3,3 0 0 1 0.5,-1.58 4.46,4.46 0 0 1 1.25,-1.34 c 0.32,-0.22 1.22,-0.75 2.69,-1.58 a 1.78,1.78 0 0 1 -0.81,-1.39 2.32,2.32 0 0 1 0.72,-1.5 9.11,9.11 0 0 1 3,-1.74 5.35,5.35 0 0 1 -3.07,-1.61 4.06,4.06 0 0 1 -1.13,-2.78 5.91,5.91 0 0 1 2.19,-4.47 8.39,8.39 0 0 1 5.83,-2 7.28,7.28 0 0 1 2.16,0.26 5.71,5.71 0 0 1 1.63,0.83 z m -14.52,14.81 a 5.24,5.24 0 0 0 -2.15,1.67 3.43,3.43 0 0 0 -0.73,2 2.27,2.27 0 0 0 1.05,1.91 7.52,7.52 0 0 0 4.43,1.09 9.87,9.87 0 0 0 4.3,-0.85 c 1.19,-0.57 1.78,-1.3 1.78,-2.2 a 1.79,1.79 0 0 0 -0.66,-1.31 5.57,5.57 0 0 0 -2.55,-1 q -1.05,-0.2 -5.47,-1.31 z m 8.42,-12 a 3.07,3.07 0 0 0 -0.78,-2.22 2.73,2.73 0 0 0 -2,-0.81 3.81,3.81 0 0 0 -3.28,2 7.53,7.53 0 0 0 -1.29,4.15 3.06,3.06 0 0 0 0.82,2.22 2.71,2.71 0 0 0 2,0.86 3.51,3.51 0 0 0 1.8,-0.51 4.49,4.49 0 0 0 1.47,-1.41 7.31,7.31 0 0 0 0.95,-2.28 9.65,9.65 0 0 0 0.31,-2.05 z"
     id="path26" />
  <path
     class="cls-3"
     d="m 227.84,44.39 a 10.88,10.88 0 0 1 -1.4,5.22 10.55,10.55 0 0 1 -3.89,4.09 9.37,9.37 0 0 1 -4.85,1.52 5.3,5.3 0 0 1 -3.93,-1.54 5.4,5.4 0 0 1 -1.52,-4 10.39,10.39 0 0 1 1.48,-5.19 11.29,11.29 0 0 1 4,-4.11 9.21,9.21 0 0 1 4.8,-1.51 5.15,5.15 0 0 1 3.83,1.53 5.41,5.41 0 0 1 1.48,3.99 z m -2.92,-1.25 a 3.6,3.6 0 0 0 -0.8,-2.51 2.67,2.67 0 0 0 -2.06,-0.87 c -1.73,0 -3.31,1.23 -4.76,3.7 a 14.43,14.43 0 0 0 -2.17,7.36 3.63,3.63 0 0 0 0.84,2.57 2.79,2.79 0 0 0 2.13,0.91 q 2.47,0 4.65,-3.69 a 14.51,14.51 0 0 0 2.17,-7.47 z"
     id="path28" />
  <path
     class="cls-3"
     d="m 229.97,39.98 5.08,-1.09 a 19.14,19.14 0 0 1 0.88,2.65 39.93,39.93 0 0 1 0.77,4.71 q 0.13,1.38 0.39,5.8 2.19,-2.43 2.61,-3 2.32,-3.15 2.68,-3.7 a 8.42,8.42 0 0 0 0.81,-1.63 3.14,3.14 0 0 0 0.19,-1 c 0,-0.31 -0.27,-0.66 -0.82,-1.06 a 1.67,1.67 0 0 1 -0.82,-1.33 1.35,1.35 0 0 1 0.45,-1 1.46,1.46 0 0 1 1.07,-0.44 1.74,1.74 0 0 1 1.3,0.6 2.17,2.17 0 0 1 0.56,1.51 5.53,5.53 0 0 1 -0.28,1.72 16,16 0 0 1 -1.71,3.26 52.87,52.87 0 0 1 -4,5.16 q -0.36,0.4 -3.91,4.08 h -0.65 q -0.42,-11.13 -1.75,-13.89 a 1.51,1.51 0 0 0 -1.46,-0.9 7.55,7.55 0 0 0 -1.25,0.16 z"
     id="path30" />
  <metadata
     id="metadata850">
    <rdf:RDF>
      <cc:Work
         rdf:about="">
        <dc:title>PubMed-gov-white-2</dc:title>
      </cc:Work>
    </rdf:RDF>
  </metadata>
</svg>
